  0
SECTION
  2
HEADER
  9
$ACADVER
  1
AC1009
  9
$EXTMIN
 10
0.0
 20
0.0
 30
0.0
  9
$EXTMAX
 10
1000.0
 20
1000.0
 30
0.0
  9
$FILLMODE
 70
 0
  9
$SPLFRAME
 70
 1
  0
ENDSEC
  0
SECTION
  2
TABLES
  0
TABLE
  2
LAYER
 70
1
  0
LAYER
  2
0
 70
     0
 62
     7
  6
CONTINUOUS
  0
ENDTAB
  0
ENDSEC
  0
SECTION
  2
ENTITIES
  0
LINE
  8
0
 62
     0
 10
0.0950846
 20
76.4575
 30
0.0
 11
247.745
 21
76.4575
 31
0.0
  0
LINE
  8
0
 62
     0
 10
247.745
 20
76.4575
 30
0.0
 11
247.745
 21
0.257693
 31
0.0
  0
LINE
  8
0
 62
     0
 10
247.745
 20
0.257693
 30
0.0
 11
0.0950846
 21
0.257693
 31
0.0
  0
LINE
  8
0
 62
     0
 10
0.0950846
 20
0.257693
 30
0.0
 11
0.0950846
 21
76.4575
 31
0.0
  0
LINE
  8
0
 62
     0
 10
162.162
 20
16.7831
 30
0.0
 11
162.162
 21
15.7827
 31
0.0
  0
LINE
  8
0
 62
     0
 10
162.162
 20
15.7827
 30
0.0
 11
161.363
 21
15.7827
 31
0.0
  0
LINE
  8
0
 62
     0
 10
161.363
 20
15.7827
 30
0.0
 11
161.363
 21
12.6848
 31
0.0
  0
LINE
  8
0
 62
     0
 10
161.363
 20
12.6848
 30
0.0
 11
162.162
 21
12.6848
 31
0.0
  0
LINE
  8
0
 62
     0
 10
162.162
 20
12.6848
 30
0.0
 11
162.162
 21
12.0826
 31
0.0
  0
LINE
  8
0
 62
     0
 10
162.162
 20
12.0826
 30
0.0
 11
160.638
 21
12.0826
 31
0.0
  0
LINE
  8
0
 62
     0
 10
160.638
 20
12.0826
 30
0.0
 11
160.638
 21
15.3128
 31
0.0
  0
LINE
  8
0
 62
     0
 10
160.638
 20
15.3128
 30
0.0
 11
158.913
 21
15.3128
 31
0.0
  0
LINE
  8
0
 62
     0
 10
158.913
 20
15.3128
 30
0.0
 11
158.913
 21
16.2347
 31
0.0
  0
LINE
  8
0
 62
     0
 10
158.913
 20
16.2347
 30
0.0
 11
155.612
 21
16.2347
 31
0.0
  0
LINE
  8
0
 62
     0
 10
155.612
 20
16.2347
 30
0.0
 11
155.612
 21
15.3128
 31
0.0
  0
LINE
  8
0
 62
     0
 10
155.612
 20
15.3128
 30
0.0
 11
153.887
 21
15.3128
 31
0.0
  0
LINE
  8
0
 62
     0
 10
153.887
 20
15.3128
 30
0.0
 11
153.887
 21
12.0826
 31
0.0
  0
LINE
  8
0
 62
     0
 10
153.887
 20
12.0826
 30
0.0
 11
153.063
 21
12.0826
 31
0.0
  0
LINE
  8
0
 62
     0
 10
153.063
 20
12.0826
 30
0.0
 11
153.063
 21
9.28384
 31
0.0
  0
LINE
  8
0
 62
     0
 10
153.063
 20
9.28384
 30
0.0
 11
153.887
 21
9.28384
 31
0.0
  0
LINE
  8
0
 62
     0
 10
153.887
 20
9.28384
 30
0.0
 11
153.887
 21
3.01377
 31
0.0
  0
LINE
  8
0
 62
     0
 10
153.887
 20
3.01377
 30
0.0
 11
155.612
 21
3.01377
 31
0.0
  0
LINE
  8
0
 62
     0
 10
155.612
 20
3.01377
 30
0.0
 11
155.612
 21
2.03261
 31
0.0
  0
LINE
  8
0
 62
     0
 10
155.612
 20
2.03261
 30
0.0
 11
158.913
 21
2.03261
 31
0.0
  0
LINE
  8
0
 62
     0
 10
158.913
 20
2.03261
 30
0.0
 11
158.913
 21
3.01377
 31
0.0
  0
LINE
  8
0
 62
     0
 10
158.913
 20
3.01377
 30
0.0
 11
160.638
 21
3.01377
 31
0.0
  0
LINE
  8
0
 62
     0
 10
160.638
 20
3.01377
 30
0.0
 11
160.638
 21
7.48273
 31
0.0
  0
LINE
  8
0
 62
     0
 10
160.638
 20
7.48273
 30
0.0
 11
162.162
 21
7.48273
 31
0.0
  0
LINE
  8
0
 62
     0
 10
162.162
 20
7.48273
 30
0.0
 11
162.162
 21
6.88329
 31
0.0
  0
LINE
  8
0
 62
     0
 10
162.162
 20
6.88329
 30
0.0
 11
161.363
 21
6.88329
 31
0.0
  0
LINE
  8
0
 62
     0
 10
161.363
 20
6.88329
 30
0.0
 11
161.363
 21
3.78273
 31
0.0
  0
LINE
  8
0
 62
     0
 10
161.363
 20
3.78273
 30
0.0
 11
162.162
 21
3.78273
 31
0.0
  0
LINE
  8
0
 62
     0
 10
162.162
 20
3.78273
 30
0.0
 11
162.162
 21
2.78364
 31
0.0
  0
LINE
  8
0
 62
     0
 10
162.162
 20
2.78364
 30
0.0
 11
176.163
 21
2.78364
 31
0.0
  0
LINE
  8
0
 62
     0
 10
176.163
 20
2.78364
 30
0.0
 11
176.163
 21
3.78273
 31
0.0
  0
LINE
  8
0
 62
     0
 10
176.163
 20
3.78273
 30
0.0
 11
176.962
 21
3.78273
 31
0.0
  0
LINE
  8
0
 62
     0
 10
176.962
 20
3.78273
 30
0.0
 11
176.962
 21
6.88329
 31
0.0
  0
LINE
  8
0
 62
     0
 10
176.962
 20
6.88329
 30
0.0
 11
176.163
 21
6.88329
 31
0.0
  0
LINE
  8
0
 62
     0
 10
176.163
 20
6.88329
 30
0.0
 11
176.163
 21
7.48273
 31
0.0
  0
LINE
  8
0
 62
     0
 10
176.163
 20
7.48273
 30
0.0
 11
177.687
 21
7.48273
 31
0.0
  0
LINE
  8
0
 62
     0
 10
177.687
 20
7.48273
 30
0.0
 11
177.687
 21
3.01377
 31
0.0
  0
LINE
  8
0
 62
     0
 10
177.687
 20
3.01377
 30
0.0
 11
179.412
 21
3.01377
 31
0.0
  0
LINE
  8
0
 62
     0
 10
179.412
 20
3.01377
 30
0.0
 11
179.412
 21
2.03261
 31
0.0
  0
LINE
  8
0
 62
     0
 10
179.412
 20
2.03261
 30
0.0
 11
182.713
 21
2.03261
 31
0.0
  0
LINE
  8
0
 62
     0
 10
182.713
 20
2.03261
 30
0.0
 11
182.713
 21
3.01377
 31
0.0
  0
LINE
  8
0
 62
     0
 10
182.713
 20
3.01377
 30
0.0
 11
184.438
 21
3.01377
 31
0.0
  0
LINE
  8
0
 62
     0
 10
184.438
 20
3.01377
 30
0.0
 11
184.438
 21
9.28384
 31
0.0
  0
LINE
  8
0
 62
     0
 10
184.438
 20
9.28384
 30
0.0
 11
185.262
 21
9.28384
 31
0.0
  0
LINE
  8
0
 62
     0
 10
185.262
 20
9.28384
 30
0.0
 11
185.262
 21
12.0826
 31
0.0
  0
LINE
  8
0
 62
     0
 10
185.262
 20
12.0826
 30
0.0
 11
184.438
 21
12.0826
 31
0.0
  0
LINE
  8
0
 62
     0
 10
184.438
 20
12.0826
 30
0.0
 11
184.438
 21
15.3128
 31
0.0
  0
LINE
  8
0
 62
     0
 10
184.438
 20
15.3128
 30
0.0
 11
182.713
 21
15.3128
 31
0.0
  0
LINE
  8
0
 62
     0
 10
182.713
 20
15.3128
 30
0.0
 11
182.713
 21
16.2347
 31
0.0
  0
LINE
  8
0
 62
     0
 10
182.713
 20
16.2347
 30
0.0
 11
179.412
 21
16.2347
 31
0.0
  0
LINE
  8
0
 62
     0
 10
179.412
 20
16.2347
 30
0.0
 11
179.412
 21
15.3128
 31
0.0
  0
LINE
  8
0
 62
     0
 10
179.412
 20
15.3128
 30
0.0
 11
177.687
 21
15.3128
 31
0.0
  0
LINE
  8
0
 62
     0
 10
177.687
 20
15.3128
 30
0.0
 11
177.687
 21
12.0826
 31
0.0
  0
LINE
  8
0
 62
     0
 10
177.687
 20
12.0826
 30
0.0
 11
176.163
 21
12.0826
 31
0.0
  0
LINE
  8
0
 62
     0
 10
176.163
 20
12.0826
 30
0.0
 11
176.163
 21
12.6848
 31
0.0
  0
LINE
  8
0
 62
     0
 10
176.163
 20
12.6848
 30
0.0
 11
176.962
 21
12.6848
 31
0.0
  0
LINE
  8
0
 62
     0
 10
176.962
 20
12.6848
 30
0.0
 11
176.962
 21
15.7827
 31
0.0
  0
LINE
  8
0
 62
     0
 10
176.962
 20
15.7827
 30
0.0
 11
176.163
 21
15.7827
 31
0.0
  0
LINE
  8
0
 62
     0
 10
176.163
 20
15.7827
 30
0.0
 11
176.163
 21
16.7831
 31
0.0
  0
LINE
  8
0
 62
     0
 10
176.163
 20
16.7831
 30
0.0
 11
162.162
 21
16.7831
 31
0.0
  0
LINE
  8
0
 62
     0
 10
66.9121
 20
16.7831
 30
0.0
 11
66.9121
 21
15.7827
 31
0.0
  0
LINE
  8
0
 62
     0
 10
66.9121
 20
15.7827
 30
0.0
 11
66.1127
 21
15.7827
 31
0.0
  0
LINE
  8
0
 62
     0
 10
66.1127
 20
15.7827
 30
0.0
 11
66.1127
 21
12.6848
 31
0.0
  0
LINE
  8
0
 62
     0
 10
66.1127
 20
12.6848
 30
0.0
 11
66.9121
 21
12.6848
 31
0.0
  0
LINE
  8
0
 62
     0
 10
66.9121
 20
12.6848
 30
0.0
 11
66.9121
 21
12.0826
 31
0.0
  0
LINE
  8
0
 62
     0
 10
66.9121
 20
12.0826
 30
0.0
 11
65.3881
 21
12.0826
 31
0.0
  0
LINE
  8
0
 62
     0
 10
65.3881
 20
12.0826
 30
0.0
 11
65.3881
 21
15.3128
 31
0.0
  0
LINE
  8
0
 62
     0
 10
65.3881
 20
15.3128
 30
0.0
 11
63.6626
 21
15.3128
 31
0.0
  0
LINE
  8
0
 62
     0
 10
63.6626
 20
15.3128
 30
0.0
 11
63.6626
 21
16.2347
 31
0.0
  0
LINE
  8
0
 62
     0
 10
63.6626
 20
16.2347
 30
0.0
 11
60.362
 21
16.2347
 31
0.0
  0
LINE
  8
0
 62
     0
 10
60.362
 20
16.2347
 30
0.0
 11
60.362
 21
15.3128
 31
0.0
  0
LINE
  8
0
 62
     0
 10
60.362
 20
15.3128
 30
0.0
 11
58.637
 21
15.3128
 31
0.0
  0
LINE
  8
0
 62
     0
 10
58.637
 20
15.3128
 30
0.0
 11
58.637
 21
12.0826
 31
0.0
  0
LINE
  8
0
 62
     0
 10
58.637
 20
12.0826
 30
0.0
 11
57.8129
 21
12.0826
 31
0.0
  0
LINE
  8
0
 62
     0
 10
57.8129
 20
12.0826
 30
0.0
 11
57.8129
 21
9.28384
 31
0.0
  0
LINE
  8
0
 62
     0
 10
57.8129
 20
9.28384
 30
0.0
 11
58.637
 21
9.28384
 31
0.0
  0
LINE
  8
0
 62
     0
 10
58.637
 20
9.28384
 30
0.0
 11
58.637
 21
3.01377
 31
0.0
  0
LINE
  8
0
 62
     0
 10
58.637
 20
3.01377
 30
0.0
 11
60.362
 21
3.01377
 31
0.0
  0
LINE
  8
0
 62
     0
 10
60.362
 20
3.01377
 30
0.0
 11
60.362
 21
2.03261
 31
0.0
  0
LINE
  8
0
 62
     0
 10
60.362
 20
2.03261
 30
0.0
 11
63.6626
 21
2.03261
 31
0.0
  0
LINE
  8
0
 62
     0
 10
63.6626
 20
2.03261
 30
0.0
 11
63.6626
 21
3.01377
 31
0.0
  0
LINE
  8
0
 62
     0
 10
63.6626
 20
3.01377
 30
0.0
 11
65.3881
 21
3.01377
 31
0.0
  0
LINE
  8
0
 62
     0
 10
65.3881
 20
3.01377
 30
0.0
 11
65.3881
 21
7.48273
 31
0.0
  0
LINE
  8
0
 62
     0
 10
65.3881
 20
7.48273
 30
0.0
 11
66.9121
 21
7.48273
 31
0.0
  0
LINE
  8
0
 62
     0
 10
66.9121
 20
7.48273
 30
0.0
 11
66.9121
 21
6.88329
 31
0.0
  0
LINE
  8
0
 62
     0
 10
66.9121
 20
6.88329
 30
0.0
 11
66.1127
 21
6.88329
 31
0.0
  0
LINE
  8
0
 62
     0
 10
66.1127
 20
6.88329
 30
0.0
 11
66.1127
 21
3.78273
 31
0.0
  0
LINE
  8
0
 62
     0
 10
66.1127
 20
3.78273
 30
0.0
 11
66.9121
 21
3.78273
 31
0.0
  0
LINE
  8
0
 62
     0
 10
66.9121
 20
3.78273
 30
0.0
 11
66.9121
 21
2.78364
 31
0.0
  0
LINE
  8
0
 62
     0
 10
66.9121
 20
2.78364
 30
0.0
 11
80.9128
 21
2.78364
 31
0.0
  0
LINE
  8
0
 62
     0
 10
80.9128
 20
2.78364
 30
0.0
 11
80.9128
 21
3.78273
 31
0.0
  0
LINE
  8
0
 62
     0
 10
80.9128
 20
3.78273
 30
0.0
 11
81.7122
 21
3.78273
 31
0.0
  0
LINE
  8
0
 62
     0
 10
81.7122
 20
3.78273
 30
0.0
 11
81.7122
 21
6.88329
 31
0.0
  0
LINE
  8
0
 62
     0
 10
81.7122
 20
6.88329
 30
0.0
 11
80.9128
 21
6.88329
 31
0.0
  0
LINE
  8
0
 62
     0
 10
80.9128
 20
6.88329
 30
0.0
 11
80.9128
 21
7.48273
 31
0.0
  0
LINE
  8
0
 62
     0
 10
80.9128
 20
7.48273
 30
0.0
 11
82.4371
 21
7.48273
 31
0.0
  0
LINE
  8
0
 62
     0
 10
82.4371
 20
7.48273
 30
0.0
 11
82.4371
 21
3.01377
 31
0.0
  0
LINE
  8
0
 62
     0
 10
82.4371
 20
3.01377
 30
0.0
 11
84.1622
 21
3.01377
 31
0.0
  0
LINE
  8
0
 62
     0
 10
84.1622
 20
3.01377
 30
0.0
 11
84.1622
 21
2.03261
 31
0.0
  0
LINE
  8
0
 62
     0
 10
84.1622
 20
2.03261
 30
0.0
 11
87.4628
 21
2.03261
 31
0.0
  0
LINE
  8
0
 62
     0
 10
87.4628
 20
2.03261
 30
0.0
 11
87.4628
 21
3.01377
 31
0.0
  0
LINE
  8
0
 62
     0
 10
87.4628
 20
3.01377
 30
0.0
 11
89.1879
 21
3.01377
 31
0.0
  0
LINE
  8
0
 62
     0
 10
89.1879
 20
3.01377
 30
0.0
 11
89.1879
 21
9.28384
 31
0.0
  0
LINE
  8
0
 62
     0
 10
89.1879
 20
9.28384
 30
0.0
 11
90.012
 21
9.28384
 31
0.0
  0
LINE
  8
0
 62
     0
 10
90.012
 20
9.28384
 30
0.0
 11
90.012
 21
12.0826
 31
0.0
  0
LINE
  8
0
 62
     0
 10
90.012
 20
12.0826
 30
0.0
 11
89.1879
 21
12.0826
 31
0.0
  0
LINE
  8
0
 62
     0
 10
89.1879
 20
12.0826
 30
0.0
 11
89.1879
 21
15.3128
 31
0.0
  0
LINE
  8
0
 62
     0
 10
89.1879
 20
15.3128
 30
0.0
 11
87.4628
 21
15.3128
 31
0.0
  0
LINE
  8
0
 62
     0
 10
87.4628
 20
15.3128
 30
0.0
 11
87.4628
 21
16.2347
 31
0.0
  0
LINE
  8
0
 62
     0
 10
87.4628
 20
16.2347
 30
0.0
 11
84.1622
 21
16.2347
 31
0.0
  0
LINE
  8
0
 62
     0
 10
84.1622
 20
16.2347
 30
0.0
 11
84.1622
 21
15.3128
 31
0.0
  0
LINE
  8
0
 62
     0
 10
84.1622
 20
15.3128
 30
0.0
 11
82.4371
 21
15.3128
 31
0.0
  0
LINE
  8
0
 62
     0
 10
82.4371
 20
15.3128
 30
0.0
 11
82.4371
 21
12.0826
 31
0.0
  0
LINE
  8
0
 62
     0
 10
82.4371
 20
12.0826
 30
0.0
 11
80.9128
 21
12.0826
 31
0.0
  0
LINE
  8
0
 62
     0
 10
80.9128
 20
12.0826
 30
0.0
 11
80.9128
 21
12.6848
 31
0.0
  0
LINE
  8
0
 62
     0
 10
80.9128
 20
12.6848
 30
0.0
 11
81.7122
 21
12.6848
 31
0.0
  0
LINE
  8
0
 62
     0
 10
81.7122
 20
12.6848
 30
0.0
 11
81.7122
 21
15.7827
 31
0.0
  0
LINE
  8
0
 62
     0
 10
81.7122
 20
15.7827
 30
0.0
 11
80.9128
 21
15.7827
 31
0.0
  0
LINE
  8
0
 62
     0
 10
80.9128
 20
15.7827
 30
0.0
 11
80.9128
 21
16.7831
 31
0.0
  0
LINE
  8
0
 62
     0
 10
80.9128
 20
16.7831
 30
0.0
 11
66.9121
 21
16.7831
 31
0.0
  0
LINE
  8
0
 62
     0
 10
124.062
 20
16.7831
 30
0.0
 11
124.062
 21
15.7827
 31
0.0
  0
LINE
  8
0
 62
     0
 10
124.062
 20
15.7827
 30
0.0
 11
123.263
 21
15.7827
 31
0.0
  0
LINE
  8
0
 62
     0
 10
123.263
 20
15.7827
 30
0.0
 11
123.263
 21
12.6848
 31
0.0
  0
LINE
  8
0
 62
     0
 10
123.263
 20
12.6848
 30
0.0
 11
124.062
 21
12.6848
 31
0.0
  0
LINE
  8
0
 62
     0
 10
124.062
 20
12.6848
 30
0.0
 11
124.062
 21
6.88329
 31
0.0
  0
LINE
  8
0
 62
     0
 10
124.062
 20
6.88329
 30
0.0
 11
123.263
 21
6.88329
 31
0.0
  0
LINE
  8
0
 62
     0
 10
123.263
 20
6.88329
 30
0.0
 11
123.263
 21
3.78273
 31
0.0
  0
LINE
  8
0
 62
     0
 10
123.263
 20
3.78273
 30
0.0
 11
124.062
 21
3.78273
 31
0.0
  0
LINE
  8
0
 62
     0
 10
124.062
 20
3.78273
 30
0.0
 11
124.062
 21
2.78364
 31
0.0
  0
LINE
  8
0
 62
     0
 10
124.062
 20
2.78364
 30
0.0
 11
138.063
 21
2.78364
 31
0.0
  0
LINE
  8
0
 62
     0
 10
138.063
 20
2.78364
 30
0.0
 11
138.063
 21
3.78273
 31
0.0
  0
LINE
  8
0
 62
     0
 10
138.063
 20
3.78273
 30
0.0
 11
138.862
 21
3.78273
 31
0.0
  0
LINE
  8
0
 62
     0
 10
138.862
 20
3.78273
 30
0.0
 11
138.862
 21
6.88329
 31
0.0
  0
LINE
  8
0
 62
     0
 10
138.862
 20
6.88329
 30
0.0
 11
138.063
 21
6.88329
 31
0.0
  0
LINE
  8
0
 62
     0
 10
138.063
 20
6.88329
 30
0.0
 11
138.063
 21
12.6848
 31
0.0
  0
LINE
  8
0
 62
     0
 10
138.063
 20
12.6848
 30
0.0
 11
138.862
 21
12.6848
 31
0.0
  0
LINE
  8
0
 62
     0
 10
138.862
 20
12.6848
 30
0.0
 11
138.862
 21
15.7827
 31
0.0
  0
LINE
  8
0
 62
     0
 10
138.862
 20
15.7827
 30
0.0
 11
138.063
 21
15.7827
 31
0.0
  0
LINE
  8
0
 62
     0
 10
138.063
 20
15.7827
 30
0.0
 11
138.063
 21
16.7831
 31
0.0
  0
LINE
  8
0
 62
     0
 10
138.063
 20
16.7831
 30
0.0
 11
124.062
 21
16.7831
 31
0.0
  0
LINE
  8
0
 62
     0
 10
100.251
 20
16.7831
 30
0.0
 11
100.251
 21
15.7827
 31
0.0
  0
LINE
  8
0
 62
     0
 10
100.251
 20
15.7827
 30
0.0
 11
99.4502
 21
15.7827
 31
0.0
  0
LINE
  8
0
 62
     0
 10
99.4502
 20
15.7827
 30
0.0
 11
99.4502
 21
12.6848
 31
0.0
  0
LINE
  8
0
 62
     0
 10
99.4502
 20
12.6848
 30
0.0
 11
100.251
 21
12.6848
 31
0.0
  0
LINE
  8
0
 62
     0
 10
100.251
 20
12.6848
 30
0.0
 11
100.251
 21
6.88329
 31
0.0
  0
LINE
  8
0
 62
     0
 10
100.251
 20
6.88329
 30
0.0
 11
99.4502
 21
6.88329
 31
0.0
  0
LINE
  8
0
 62
     0
 10
99.4502
 20
6.88329
 30
0.0
 11
99.4502
 21
3.78273
 31
0.0
  0
LINE
  8
0
 62
     0
 10
99.4502
 20
3.78273
 30
0.0
 11
100.251
 21
3.78273
 31
0.0
  0
LINE
  8
0
 62
     0
 10
100.251
 20
3.78273
 30
0.0
 11
100.251
 21
2.78364
 31
0.0
  0
LINE
  8
0
 62
     0
 10
100.251
 20
2.78364
 30
0.0
 11
114.25
 21
2.78364
 31
0.0
  0
LINE
  8
0
 62
     0
 10
114.25
 20
2.78364
 30
0.0
 11
114.25
 21
3.78273
 31
0.0
  0
LINE
  8
0
 62
     0
 10
114.25
 20
3.78273
 30
0.0
 11
115.051
 21
3.78273
 31
0.0
  0
LINE
  8
0
 62
     0
 10
115.051
 20
3.78273
 30
0.0
 11
115.051
 21
6.88329
 31
0.0
  0
LINE
  8
0
 62
     0
 10
115.051
 20
6.88329
 30
0.0
 11
114.25
 21
6.88329
 31
0.0
  0
LINE
  8
0
 62
     0
 10
114.25
 20
6.88329
 30
0.0
 11
114.25
 21
12.6848
 31
0.0
  0
LINE
  8
0
 62
     0
 10
114.25
 20
12.6848
 30
0.0
 11
115.051
 21
12.6848
 31
0.0
  0
LINE
  8
0
 62
     0
 10
115.051
 20
12.6848
 30
0.0
 11
115.051
 21
15.7827
 31
0.0
  0
LINE
  8
0
 62
     0
 10
115.051
 20
15.7827
 30
0.0
 11
114.25
 21
15.7827
 31
0.0
  0
LINE
  8
0
 62
     0
 10
114.25
 20
15.7827
 30
0.0
 11
114.25
 21
16.7831
 31
0.0
  0
LINE
  8
0
 62
     0
 10
114.25
 20
16.7831
 30
0.0
 11
100.251
 21
16.7831
 31
0.0
  0
LINE
  8
0
 62
     0
 10
228.837
 20
35.833
 30
0.0
 11
228.837
 21
34.8327
 31
0.0
  0
LINE
  8
0
 62
     0
 10
228.837
 20
34.8327
 30
0.0
 11
228.038
 21
34.8327
 31
0.0
  0
LINE
  8
0
 62
     0
 10
228.038
 20
34.8327
 30
0.0
 11
228.038
 21
31.7335
 31
0.0
  0
LINE
  8
0
 62
     0
 10
228.038
 20
31.7335
 30
0.0
 11
228.837
 21
31.7335
 31
0.0
  0
LINE
  8
0
 62
     0
 10
228.837
 20
31.7335
 30
0.0
 11
228.837
 21
25.9333
 31
0.0
  0
LINE
  8
0
 62
     0
 10
228.837
 20
25.9333
 30
0.0
 11
228.038
 21
25.9333
 31
0.0
  0
LINE
  8
0
 62
     0
 10
228.038
 20
25.9333
 30
0.0
 11
228.038
 21
22.8327
 31
0.0
  0
LINE
  8
0
 62
     0
 10
228.038
 20
22.8327
 30
0.0
 11
228.837
 21
22.8327
 31
0.0
  0
LINE
  8
0
 62
     0
 10
228.837
 20
22.8327
 30
0.0
 11
228.837
 21
21.8336
 31
0.0
  0
LINE
  8
0
 62
     0
 10
228.837
 20
21.8336
 30
0.0
 11
242.838
 21
21.8336
 31
0.0
  0
LINE
  8
0
 62
     0
 10
242.838
 20
21.8336
 30
0.0
 11
242.838
 21
22.8327
 31
0.0
  0
LINE
  8
0
 62
     0
 10
242.838
 20
22.8327
 30
0.0
 11
243.637
 21
22.8327
 31
0.0
  0
LINE
  8
0
 62
     0
 10
243.637
 20
22.8327
 30
0.0
 11
243.637
 21
25.9333
 31
0.0
  0
LINE
  8
0
 62
     0
 10
243.637
 20
25.9333
 30
0.0
 11
242.838
 21
25.9333
 31
0.0
  0
LINE
  8
0
 62
     0
 10
242.838
 20
25.9333
 30
0.0
 11
242.838
 21
31.7335
 31
0.0
  0
LINE
  8
0
 62
     0
 10
242.838
 20
31.7335
 30
0.0
 11
243.637
 21
31.7335
 31
0.0
  0
LINE
  8
0
 62
     0
 10
243.637
 20
31.7335
 30
0.0
 11
243.637
 21
34.8327
 31
0.0
  0
LINE
  8
0
 62
     0
 10
243.637
 20
34.8327
 30
0.0
 11
242.838
 21
34.8327
 31
0.0
  0
LINE
  8
0
 62
     0
 10
242.838
 20
34.8327
 30
0.0
 11
242.838
 21
35.833
 31
0.0
  0
LINE
  8
0
 62
     0
 10
242.838
 20
35.833
 30
0.0
 11
228.837
 21
35.833
 31
0.0
  0
LINE
  8
0
 62
     0
 10
207.407
 20
35.833
 30
0.0
 11
207.407
 21
34.8327
 31
0.0
  0
LINE
  8
0
 62
     0
 10
207.407
 20
34.8327
 30
0.0
 11
206.606
 21
34.8327
 31
0.0
  0
LINE
  8
0
 62
     0
 10
206.606
 20
34.8327
 30
0.0
 11
206.606
 21
31.7335
 31
0.0
  0
LINE
  8
0
 62
     0
 10
206.606
 20
31.7335
 30
0.0
 11
207.407
 21
31.7335
 31
0.0
  0
LINE
  8
0
 62
     0
 10
207.407
 20
31.7335
 30
0.0
 11
207.407
 21
25.9333
 31
0.0
  0
LINE
  8
0
 62
     0
 10
207.407
 20
25.9333
 30
0.0
 11
206.606
 21
25.9333
 31
0.0
  0
LINE
  8
0
 62
     0
 10
206.606
 20
25.9333
 30
0.0
 11
206.606
 21
22.8327
 31
0.0
  0
LINE
  8
0
 62
     0
 10
206.606
 20
22.8327
 30
0.0
 11
207.407
 21
22.8327
 31
0.0
  0
LINE
  8
0
 62
     0
 10
207.407
 20
22.8327
 30
0.0
 11
207.407
 21
21.8336
 31
0.0
  0
LINE
  8
0
 62
     0
 10
207.407
 20
21.8336
 30
0.0
 11
221.407
 21
21.8336
 31
0.0
  0
LINE
  8
0
 62
     0
 10
221.407
 20
21.8336
 30
0.0
 11
221.407
 21
22.8327
 31
0.0
  0
LINE
  8
0
 62
     0
 10
221.407
 20
22.8327
 30
0.0
 11
222.206
 21
22.8327
 31
0.0
  0
LINE
  8
0
 62
     0
 10
222.206
 20
22.8327
 30
0.0
 11
222.206
 21
25.9333
 31
0.0
  0
LINE
  8
0
 62
     0
 10
222.206
 20
25.9333
 30
0.0
 11
221.407
 21
25.9333
 31
0.0
  0
LINE
  8
0
 62
     0
 10
221.407
 20
25.9333
 30
0.0
 11
221.407
 21
31.7335
 31
0.0
  0
LINE
  8
0
 62
     0
 10
221.407
 20
31.7335
 30
0.0
 11
222.206
 21
31.7335
 31
0.0
  0
LINE
  8
0
 62
     0
 10
222.206
 20
31.7335
 30
0.0
 11
222.206
 21
34.8327
 31
0.0
  0
LINE
  8
0
 62
     0
 10
222.206
 20
34.8327
 30
0.0
 11
221.407
 21
34.8327
 31
0.0
  0
LINE
  8
0
 62
     0
 10
221.407
 20
34.8327
 30
0.0
 11
221.407
 21
35.833
 31
0.0
  0
LINE
  8
0
 62
     0
 10
221.407
 20
35.833
 30
0.0
 11
207.407
 21
35.833
 31
0.0
  0
LINE
  8
0
 62
     0
 10
188.357
 20
35.833
 30
0.0
 11
188.357
 21
34.8327
 31
0.0
  0
LINE
  8
0
 62
     0
 10
188.357
 20
34.8327
 30
0.0
 11
187.556
 21
34.8327
 31
0.0
  0
LINE
  8
0
 62
     0
 10
187.556
 20
34.8327
 30
0.0
 11
187.556
 21
31.7335
 31
0.0
  0
LINE
  8
0
 62
     0
 10
187.556
 20
31.7335
 30
0.0
 11
188.357
 21
31.7335
 31
0.0
  0
LINE
  8
0
 62
     0
 10
188.357
 20
31.7335
 30
0.0
 11
188.357
 21
25.9333
 31
0.0
  0
LINE
  8
0
 62
     0
 10
188.357
 20
25.9333
 30
0.0
 11
187.556
 21
25.9333
 31
0.0
  0
LINE
  8
0
 62
     0
 10
187.556
 20
25.9333
 30
0.0
 11
187.556
 21
22.8327
 31
0.0
  0
LINE
  8
0
 62
     0
 10
187.556
 20
22.8327
 30
0.0
 11
188.357
 21
22.8327
 31
0.0
  0
LINE
  8
0
 62
     0
 10
188.357
 20
22.8327
 30
0.0
 11
188.357
 21
21.8336
 31
0.0
  0
LINE
  8
0
 62
     0
 10
188.357
 20
21.8336
 30
0.0
 11
202.357
 21
21.8336
 31
0.0
  0
LINE
  8
0
 62
     0
 10
202.357
 20
21.8336
 30
0.0
 11
202.357
 21
22.8327
 31
0.0
  0
LINE
  8
0
 62
     0
 10
202.357
 20
22.8327
 30
0.0
 11
203.156
 21
22.8327
 31
0.0
  0
LINE
  8
0
 62
     0
 10
203.156
 20
22.8327
 30
0.0
 11
203.156
 21
25.9333
 31
0.0
  0
LINE
  8
0
 62
     0
 10
203.156
 20
25.9333
 30
0.0
 11
202.357
 21
25.9333
 31
0.0
  0
LINE
  8
0
 62
     0
 10
202.357
 20
25.9333
 30
0.0
 11
202.357
 21
31.7335
 31
0.0
  0
LINE
  8
0
 62
     0
 10
202.357
 20
31.7335
 30
0.0
 11
203.156
 21
31.7335
 31
0.0
  0
LINE
  8
0
 62
     0
 10
203.156
 20
31.7335
 30
0.0
 11
203.156
 21
34.8327
 31
0.0
  0
LINE
  8
0
 62
     0
 10
203.156
 20
34.8327
 30
0.0
 11
202.357
 21
34.8327
 31
0.0
  0
LINE
  8
0
 62
     0
 10
202.357
 20
34.8327
 30
0.0
 11
202.357
 21
35.833
 31
0.0
  0
LINE
  8
0
 62
     0
 10
202.357
 20
35.833
 30
0.0
 11
188.357
 21
35.833
 31
0.0
  0
LINE
  8
0
 62
     0
 10
169.307
 20
35.833
 30
0.0
 11
169.307
 21
34.8327
 31
0.0
  0
LINE
  8
0
 62
     0
 10
169.307
 20
34.8327
 30
0.0
 11
168.506
 21
34.8327
 31
0.0
  0
LINE
  8
0
 62
     0
 10
168.506
 20
34.8327
 30
0.0
 11
168.506
 21
31.7335
 31
0.0
  0
LINE
  8
0
 62
     0
 10
168.506
 20
31.7335
 30
0.0
 11
169.307
 21
31.7335
 31
0.0
  0
LINE
  8
0
 62
     0
 10
169.307
 20
31.7335
 30
0.0
 11
169.307
 21
25.9333
 31
0.0
  0
LINE
  8
0
 62
     0
 10
169.307
 20
25.9333
 30
0.0
 11
168.506
 21
25.9333
 31
0.0
  0
LINE
  8
0
 62
     0
 10
168.506
 20
25.9333
 30
0.0
 11
168.506
 21
22.8327
 31
0.0
  0
LINE
  8
0
 62
     0
 10
168.506
 20
22.8327
 30
0.0
 11
169.307
 21
22.8327
 31
0.0
  0
LINE
  8
0
 62
     0
 10
169.307
 20
22.8327
 30
0.0
 11
169.307
 21
21.8336
 31
0.0
  0
LINE
  8
0
 62
     0
 10
169.307
 20
21.8336
 30
0.0
 11
183.307
 21
21.8336
 31
0.0
  0
LINE
  8
0
 62
     0
 10
183.307
 20
21.8336
 30
0.0
 11
183.307
 21
22.8327
 31
0.0
  0
LINE
  8
0
 62
     0
 10
183.307
 20
22.8327
 30
0.0
 11
184.106
 21
22.8327
 31
0.0
  0
LINE
  8
0
 62
     0
 10
184.106
 20
22.8327
 30
0.0
 11
184.106
 21
25.9333
 31
0.0
  0
LINE
  8
0
 62
     0
 10
184.106
 20
25.9333
 30
0.0
 11
183.307
 21
25.9333
 31
0.0
  0
LINE
  8
0
 62
     0
 10
183.307
 20
25.9333
 30
0.0
 11
183.307
 21
31.7335
 31
0.0
  0
LINE
  8
0
 62
     0
 10
183.307
 20
31.7335
 30
0.0
 11
184.106
 21
31.7335
 31
0.0
  0
LINE
  8
0
 62
     0
 10
184.106
 20
31.7335
 30
0.0
 11
184.106
 21
34.8327
 31
0.0
  0
LINE
  8
0
 62
     0
 10
184.106
 20
34.8327
 30
0.0
 11
183.307
 21
34.8327
 31
0.0
  0
LINE
  8
0
 62
     0
 10
183.307
 20
34.8327
 30
0.0
 11
183.307
 21
35.833
 31
0.0
  0
LINE
  8
0
 62
     0
 10
183.307
 20
35.833
 30
0.0
 11
169.307
 21
35.833
 31
0.0
  0
LINE
  8
0
 62
     0
 10
150.257
 20
35.833
 30
0.0
 11
150.257
 21
34.8327
 31
0.0
  0
LINE
  8
0
 62
     0
 10
150.257
 20
34.8327
 30
0.0
 11
149.456
 21
34.8327
 31
0.0
  0
LINE
  8
0
 62
     0
 10
149.456
 20
34.8327
 30
0.0
 11
149.456
 21
31.7335
 31
0.0
  0
LINE
  8
0
 62
     0
 10
149.456
 20
31.7335
 30
0.0
 11
150.257
 21
31.7335
 31
0.0
  0
LINE
  8
0
 62
     0
 10
150.257
 20
31.7335
 30
0.0
 11
150.257
 21
25.9333
 31
0.0
  0
LINE
  8
0
 62
     0
 10
150.257
 20
25.9333
 30
0.0
 11
149.456
 21
25.9333
 31
0.0
  0
LINE
  8
0
 62
     0
 10
149.456
 20
25.9333
 30
0.0
 11
149.456
 21
22.8327
 31
0.0
  0
LINE
  8
0
 62
     0
 10
149.456
 20
22.8327
 30
0.0
 11
150.257
 21
22.8327
 31
0.0
  0
LINE
  8
0
 62
     0
 10
150.257
 20
22.8327
 30
0.0
 11
150.257
 21
21.8336
 31
0.0
  0
LINE
  8
0
 62
     0
 10
150.257
 20
21.8336
 30
0.0
 11
164.257
 21
21.8336
 31
0.0
  0
LINE
  8
0
 62
     0
 10
164.257
 20
21.8336
 30
0.0
 11
164.257
 21
22.8327
 31
0.0
  0
LINE
  8
0
 62
     0
 10
164.257
 20
22.8327
 30
0.0
 11
165.056
 21
22.8327
 31
0.0
  0
LINE
  8
0
 62
     0
 10
165.056
 20
22.8327
 30
0.0
 11
165.056
 21
25.9333
 31
0.0
  0
LINE
  8
0
 62
     0
 10
165.056
 20
25.9333
 30
0.0
 11
164.257
 21
25.9333
 31
0.0
  0
LINE
  8
0
 62
     0
 10
164.257
 20
25.9333
 30
0.0
 11
164.257
 21
31.7335
 31
0.0
  0
LINE
  8
0
 62
     0
 10
164.257
 20
31.7335
 30
0.0
 11
165.056
 21
31.7335
 31
0.0
  0
LINE
  8
0
 62
     0
 10
165.056
 20
31.7335
 30
0.0
 11
165.056
 21
34.8327
 31
0.0
  0
LINE
  8
0
 62
     0
 10
165.056
 20
34.8327
 30
0.0
 11
164.257
 21
34.8327
 31
0.0
  0
LINE
  8
0
 62
     0
 10
164.257
 20
34.8327
 30
0.0
 11
164.257
 21
35.833
 31
0.0
  0
LINE
  8
0
 62
     0
 10
164.257
 20
35.833
 30
0.0
 11
150.257
 21
35.833
 31
0.0
  0
LINE
  8
0
 62
     0
 10
131.207
 20
35.833
 30
0.0
 11
131.207
 21
34.8327
 31
0.0
  0
LINE
  8
0
 62
     0
 10
131.207
 20
34.8327
 30
0.0
 11
130.406
 21
34.8327
 31
0.0
  0
LINE
  8
0
 62
     0
 10
130.406
 20
34.8327
 30
0.0
 11
130.406
 21
31.7335
 31
0.0
  0
LINE
  8
0
 62
     0
 10
130.406
 20
31.7335
 30
0.0
 11
131.207
 21
31.7335
 31
0.0
  0
LINE
  8
0
 62
     0
 10
131.207
 20
31.7335
 30
0.0
 11
131.207
 21
25.9333
 31
0.0
  0
LINE
  8
0
 62
     0
 10
131.207
 20
25.9333
 30
0.0
 11
130.406
 21
25.9333
 31
0.0
  0
LINE
  8
0
 62
     0
 10
130.406
 20
25.9333
 30
0.0
 11
130.406
 21
22.8327
 31
0.0
  0
LINE
  8
0
 62
     0
 10
130.406
 20
22.8327
 30
0.0
 11
131.207
 21
22.8327
 31
0.0
  0
LINE
  8
0
 62
     0
 10
131.207
 20
22.8327
 30
0.0
 11
131.207
 21
21.8336
 31
0.0
  0
LINE
  8
0
 62
     0
 10
131.207
 20
21.8336
 30
0.0
 11
145.207
 21
21.8336
 31
0.0
  0
LINE
  8
0
 62
     0
 10
145.207
 20
21.8336
 30
0.0
 11
145.207
 21
22.8327
 31
0.0
  0
LINE
  8
0
 62
     0
 10
145.207
 20
22.8327
 30
0.0
 11
146.006
 21
22.8327
 31
0.0
  0
LINE
  8
0
 62
     0
 10
146.006
 20
22.8327
 30
0.0
 11
146.006
 21
25.9333
 31
0.0
  0
LINE
  8
0
 62
     0
 10
146.006
 20
25.9333
 30
0.0
 11
145.207
 21
25.9333
 31
0.0
  0
LINE
  8
0
 62
     0
 10
145.207
 20
25.9333
 30
0.0
 11
145.207
 21
31.7335
 31
0.0
  0
LINE
  8
0
 62
     0
 10
145.207
 20
31.7335
 30
0.0
 11
146.006
 21
31.7335
 31
0.0
  0
LINE
  8
0
 62
     0
 10
146.006
 20
31.7335
 30
0.0
 11
146.006
 21
34.8327
 31
0.0
  0
LINE
  8
0
 62
     0
 10
146.006
 20
34.8327
 30
0.0
 11
145.207
 21
34.8327
 31
0.0
  0
LINE
  8
0
 62
     0
 10
145.207
 20
34.8327
 30
0.0
 11
145.207
 21
35.833
 31
0.0
  0
LINE
  8
0
 62
     0
 10
145.207
 20
35.833
 30
0.0
 11
131.207
 21
35.833
 31
0.0
  0
LINE
  8
0
 62
     0
 10
112.157
 20
35.833
 30
0.0
 11
112.157
 21
34.8327
 31
0.0
  0
LINE
  8
0
 62
     0
 10
112.157
 20
34.8327
 30
0.0
 11
111.356
 21
34.8327
 31
0.0
  0
LINE
  8
0
 62
     0
 10
111.356
 20
34.8327
 30
0.0
 11
111.356
 21
31.7335
 31
0.0
  0
LINE
  8
0
 62
     0
 10
111.356
 20
31.7335
 30
0.0
 11
112.157
 21
31.7335
 31
0.0
  0
LINE
  8
0
 62
     0
 10
112.157
 20
31.7335
 30
0.0
 11
112.157
 21
25.9333
 31
0.0
  0
LINE
  8
0
 62
     0
 10
112.157
 20
25.9333
 30
0.0
 11
111.356
 21
25.9333
 31
0.0
  0
LINE
  8
0
 62
     0
 10
111.356
 20
25.9333
 30
0.0
 11
111.356
 21
22.8327
 31
0.0
  0
LINE
  8
0
 62
     0
 10
111.356
 20
22.8327
 30
0.0
 11
112.157
 21
22.8327
 31
0.0
  0
LINE
  8
0
 62
     0
 10
112.157
 20
22.8327
 30
0.0
 11
112.157
 21
21.8336
 31
0.0
  0
LINE
  8
0
 62
     0
 10
112.157
 20
21.8336
 30
0.0
 11
126.157
 21
21.8336
 31
0.0
  0
LINE
  8
0
 62
     0
 10
126.157
 20
21.8336
 30
0.0
 11
126.157
 21
22.8327
 31
0.0
  0
LINE
  8
0
 62
     0
 10
126.157
 20
22.8327
 30
0.0
 11
126.956
 21
22.8327
 31
0.0
  0
LINE
  8
0
 62
     0
 10
126.956
 20
22.8327
 30
0.0
 11
126.956
 21
25.9333
 31
0.0
  0
LINE
  8
0
 62
     0
 10
126.956
 20
25.9333
 30
0.0
 11
126.157
 21
25.9333
 31
0.0
  0
LINE
  8
0
 62
     0
 10
126.157
 20
25.9333
 30
0.0
 11
126.157
 21
31.7335
 31
0.0
  0
LINE
  8
0
 62
     0
 10
126.157
 20
31.7335
 30
0.0
 11
126.956
 21
31.7335
 31
0.0
  0
LINE
  8
0
 62
     0
 10
126.956
 20
31.7335
 30
0.0
 11
126.956
 21
34.8327
 31
0.0
  0
LINE
  8
0
 62
     0
 10
126.956
 20
34.8327
 30
0.0
 11
126.157
 21
34.8327
 31
0.0
  0
LINE
  8
0
 62
     0
 10
126.157
 20
34.8327
 30
0.0
 11
126.157
 21
35.833
 31
0.0
  0
LINE
  8
0
 62
     0
 10
126.157
 20
35.833
 30
0.0
 11
112.157
 21
35.833
 31
0.0
  0
LINE
  8
0
 62
     0
 10
93.1072
 20
35.833
 30
0.0
 11
93.1072
 21
34.8327
 31
0.0
  0
LINE
  8
0
 62
     0
 10
93.1072
 20
34.8327
 30
0.0
 11
92.3064
 21
34.8327
 31
0.0
  0
LINE
  8
0
 62
     0
 10
92.3064
 20
34.8327
 30
0.0
 11
92.3064
 21
31.7335
 31
0.0
  0
LINE
  8
0
 62
     0
 10
92.3064
 20
31.7335
 30
0.0
 11
93.1072
 21
31.7335
 31
0.0
  0
LINE
  8
0
 62
     0
 10
93.1072
 20
31.7335
 30
0.0
 11
93.1072
 21
25.9333
 31
0.0
  0
LINE
  8
0
 62
     0
 10
93.1072
 20
25.9333
 30
0.0
 11
92.3064
 21
25.9333
 31
0.0
  0
LINE
  8
0
 62
     0
 10
92.3064
 20
25.9333
 30
0.0
 11
92.3064
 21
22.8327
 31
0.0
  0
LINE
  8
0
 62
     0
 10
92.3064
 20
22.8327
 30
0.0
 11
93.1072
 21
22.8327
 31
0.0
  0
LINE
  8
0
 62
     0
 10
93.1072
 20
22.8327
 30
0.0
 11
93.1072
 21
21.8336
 31
0.0
  0
LINE
  8
0
 62
     0
 10
93.1072
 20
21.8336
 30
0.0
 11
107.107
 21
21.8336
 31
0.0
  0
LINE
  8
0
 62
     0
 10
107.107
 20
21.8336
 30
0.0
 11
107.107
 21
22.8327
 31
0.0
  0
LINE
  8
0
 62
     0
 10
107.107
 20
22.8327
 30
0.0
 11
107.906
 21
22.8327
 31
0.0
  0
LINE
  8
0
 62
     0
 10
107.906
 20
22.8327
 30
0.0
 11
107.906
 21
25.9333
 31
0.0
  0
LINE
  8
0
 62
     0
 10
107.906
 20
25.9333
 30
0.0
 11
107.107
 21
25.9333
 31
0.0
  0
LINE
  8
0
 62
     0
 10
107.107
 20
25.9333
 30
0.0
 11
107.107
 21
31.7335
 31
0.0
  0
LINE
  8
0
 62
     0
 10
107.107
 20
31.7335
 30
0.0
 11
107.906
 21
31.7335
 31
0.0
  0
LINE
  8
0
 62
     0
 10
107.906
 20
31.7335
 30
0.0
 11
107.906
 21
34.8327
 31
0.0
  0
LINE
  8
0
 62
     0
 10
107.906
 20
34.8327
 30
0.0
 11
107.107
 21
34.8327
 31
0.0
  0
LINE
  8
0
 62
     0
 10
107.107
 20
34.8327
 30
0.0
 11
107.107
 21
35.833
 31
0.0
  0
LINE
  8
0
 62
     0
 10
107.107
 20
35.833
 30
0.0
 11
93.1072
 21
35.833
 31
0.0
  0
LINE
  8
0
 62
     0
 10
74.0572
 20
35.833
 30
0.0
 11
74.0572
 21
34.8327
 31
0.0
  0
LINE
  8
0
 62
     0
 10
74.0572
 20
34.8327
 30
0.0
 11
73.2564
 21
34.8327
 31
0.0
  0
LINE
  8
0
 62
     0
 10
73.2564
 20
34.8327
 30
0.0
 11
73.2564
 21
31.7335
 31
0.0
  0
LINE
  8
0
 62
     0
 10
73.2564
 20
31.7335
 30
0.0
 11
74.0572
 21
31.7335
 31
0.0
  0
LINE
  8
0
 62
     0
 10
74.0572
 20
31.7335
 30
0.0
 11
74.0572
 21
25.9333
 31
0.0
  0
LINE
  8
0
 62
     0
 10
74.0572
 20
25.9333
 30
0.0
 11
73.2564
 21
25.9333
 31
0.0
  0
LINE
  8
0
 62
     0
 10
73.2564
 20
25.9333
 30
0.0
 11
73.2564
 21
22.8327
 31
0.0
  0
LINE
  8
0
 62
     0
 10
73.2564
 20
22.8327
 30
0.0
 11
74.0572
 21
22.8327
 31
0.0
  0
LINE
  8
0
 62
     0
 10
74.0572
 20
22.8327
 30
0.0
 11
74.0572
 21
21.8336
 31
0.0
  0
LINE
  8
0
 62
     0
 10
74.0572
 20
21.8336
 30
0.0
 11
88.0565
 21
21.8336
 31
0.0
  0
LINE
  8
0
 62
     0
 10
88.0565
 20
21.8336
 30
0.0
 11
88.0565
 21
22.8327
 31
0.0
  0
LINE
  8
0
 62
     0
 10
88.0565
 20
22.8327
 30
0.0
 11
88.8559
 21
22.8327
 31
0.0
  0
LINE
  8
0
 62
     0
 10
88.8559
 20
22.8327
 30
0.0
 11
88.8559
 21
25.9333
 31
0.0
  0
LINE
  8
0
 62
     0
 10
88.8559
 20
25.9333
 30
0.0
 11
88.0565
 21
25.9333
 31
0.0
  0
LINE
  8
0
 62
     0
 10
88.0565
 20
25.9333
 30
0.0
 11
88.0565
 21
31.7335
 31
0.0
  0
LINE
  8
0
 62
     0
 10
88.0565
 20
31.7335
 30
0.0
 11
88.8559
 21
31.7335
 31
0.0
  0
LINE
  8
0
 62
     0
 10
88.8559
 20
31.7335
 30
0.0
 11
88.8559
 21
34.8327
 31
0.0
  0
LINE
  8
0
 62
     0
 10
88.8559
 20
34.8327
 30
0.0
 11
88.0565
 21
34.8327
 31
0.0
  0
LINE
  8
0
 62
     0
 10
88.0565
 20
34.8327
 30
0.0
 11
88.0565
 21
35.833
 31
0.0
  0
LINE
  8
0
 62
     0
 10
88.0565
 20
35.833
 30
0.0
 11
74.0572
 21
35.833
 31
0.0
  0
LINE
  8
0
 62
     0
 10
55.0072
 20
35.833
 30
0.0
 11
55.0072
 21
34.8327
 31
0.0
  0
LINE
  8
0
 62
     0
 10
55.0072
 20
34.8327
 30
0.0
 11
54.2064
 21
34.8327
 31
0.0
  0
LINE
  8
0
 62
     0
 10
54.2064
 20
34.8327
 30
0.0
 11
54.2064
 21
31.7335
 31
0.0
  0
LINE
  8
0
 62
     0
 10
54.2064
 20
31.7335
 30
0.0
 11
55.0072
 21
31.7335
 31
0.0
  0
LINE
  8
0
 62
     0
 10
55.0072
 20
31.7335
 30
0.0
 11
55.0072
 21
25.9333
 31
0.0
  0
LINE
  8
0
 62
     0
 10
55.0072
 20
25.9333
 30
0.0
 11
54.2064
 21
25.9333
 31
0.0
  0
LINE
  8
0
 62
     0
 10
54.2064
 20
25.9333
 30
0.0
 11
54.2064
 21
22.8327
 31
0.0
  0
LINE
  8
0
 62
     0
 10
54.2064
 20
22.8327
 30
0.0
 11
55.0072
 21
22.8327
 31
0.0
  0
LINE
  8
0
 62
     0
 10
55.0072
 20
22.8327
 30
0.0
 11
55.0072
 21
21.8336
 31
0.0
  0
LINE
  8
0
 62
     0
 10
55.0072
 20
21.8336
 30
0.0
 11
69.0065
 21
21.8336
 31
0.0
  0
LINE
  8
0
 62
     0
 10
69.0065
 20
21.8336
 30
0.0
 11
69.0065
 21
22.8327
 31
0.0
  0
LINE
  8
0
 62
     0
 10
69.0065
 20
22.8327
 30
0.0
 11
69.8059
 21
22.8327
 31
0.0
  0
LINE
  8
0
 62
     0
 10
69.8059
 20
22.8327
 30
0.0
 11
69.8059
 21
25.9333
 31
0.0
  0
LINE
  8
0
 62
     0
 10
69.8059
 20
25.9333
 30
0.0
 11
69.0065
 21
25.9333
 31
0.0
  0
LINE
  8
0
 62
     0
 10
69.0065
 20
25.9333
 30
0.0
 11
69.0065
 21
31.7335
 31
0.0
  0
LINE
  8
0
 62
     0
 10
69.0065
 20
31.7335
 30
0.0
 11
69.8059
 21
31.7335
 31
0.0
  0
LINE
  8
0
 62
     0
 10
69.8059
 20
31.7335
 30
0.0
 11
69.8059
 21
34.8327
 31
0.0
  0
LINE
  8
0
 62
     0
 10
69.8059
 20
34.8327
 30
0.0
 11
69.0065
 21
34.8327
 31
0.0
  0
LINE
  8
0
 62
     0
 10
69.0065
 20
34.8327
 30
0.0
 11
69.0065
 21
35.833
 31
0.0
  0
LINE
  8
0
 62
     0
 10
69.0065
 20
35.833
 30
0.0
 11
55.0072
 21
35.833
 31
0.0
  0
LINE
  8
0
 62
     0
 10
35.9572
 20
35.833
 30
0.0
 11
35.9572
 21
34.8327
 31
0.0
  0
LINE
  8
0
 62
     0
 10
35.9572
 20
34.8327
 30
0.0
 11
35.1565
 21
34.8327
 31
0.0
  0
LINE
  8
0
 62
     0
 10
35.1565
 20
34.8327
 30
0.0
 11
35.1565
 21
31.7335
 31
0.0
  0
LINE
  8
0
 62
     0
 10
35.1565
 20
31.7335
 30
0.0
 11
35.9572
 21
31.7335
 31
0.0
  0
LINE
  8
0
 62
     0
 10
35.9572
 20
31.7335
 30
0.0
 11
35.9572
 21
25.9333
 31
0.0
  0
LINE
  8
0
 62
     0
 10
35.9572
 20
25.9333
 30
0.0
 11
35.1565
 21
25.9333
 31
0.0
  0
LINE
  8
0
 62
     0
 10
35.1565
 20
25.9333
 30
0.0
 11
35.1565
 21
22.8327
 31
0.0
  0
LINE
  8
0
 62
     0
 10
35.1565
 20
22.8327
 30
0.0
 11
35.9572
 21
22.8327
 31
0.0
  0
LINE
  8
0
 62
     0
 10
35.9572
 20
22.8327
 30
0.0
 11
35.9572
 21
21.8336
 31
0.0
  0
LINE
  8
0
 62
     0
 10
35.9572
 20
21.8336
 30
0.0
 11
49.9565
 21
21.8336
 31
0.0
  0
LINE
  8
0
 62
     0
 10
49.9565
 20
21.8336
 30
0.0
 11
49.9565
 21
22.8327
 31
0.0
  0
LINE
  8
0
 62
     0
 10
49.9565
 20
22.8327
 30
0.0
 11
50.7559
 21
22.8327
 31
0.0
  0
LINE
  8
0
 62
     0
 10
50.7559
 20
22.8327
 30
0.0
 11
50.7559
 21
25.9333
 31
0.0
  0
LINE
  8
0
 62
     0
 10
50.7559
 20
25.9333
 30
0.0
 11
49.9565
 21
25.9333
 31
0.0
  0
LINE
  8
0
 62
     0
 10
49.9565
 20
25.9333
 30
0.0
 11
49.9565
 21
31.7335
 31
0.0
  0
LINE
  8
0
 62
     0
 10
49.9565
 20
31.7335
 30
0.0
 11
50.7559
 21
31.7335
 31
0.0
  0
LINE
  8
0
 62
     0
 10
50.7559
 20
31.7335
 30
0.0
 11
50.7559
 21
34.8327
 31
0.0
  0
LINE
  8
0
 62
     0
 10
50.7559
 20
34.8327
 30
0.0
 11
49.9565
 21
34.8327
 31
0.0
  0
LINE
  8
0
 62
     0
 10
49.9565
 20
34.8327
 30
0.0
 11
49.9565
 21
35.833
 31
0.0
  0
LINE
  8
0
 62
     0
 10
49.9565
 20
35.833
 30
0.0
 11
35.9572
 21
35.833
 31
0.0
  0
LINE
  8
0
 62
     0
 10
9.76203
 20
35.833
 30
0.0
 11
9.76203
 21
34.8327
 31
0.0
  0
LINE
  8
0
 62
     0
 10
9.76203
 20
34.8327
 30
0.0
 11
8.96278
 21
34.8327
 31
0.0
  0
LINE
  8
0
 62
     0
 10
8.96278
 20
34.8327
 30
0.0
 11
8.96278
 21
31.7335
 31
0.0
  0
LINE
  8
0
 62
     0
 10
8.96278
 20
31.7335
 30
0.0
 11
9.76203
 21
31.7335
 31
0.0
  0
LINE
  8
0
 62
     0
 10
9.76203
 20
31.7335
 30
0.0
 11
9.76203
 21
25.9333
 31
0.0
  0
LINE
  8
0
 62
     0
 10
9.76203
 20
25.9333
 30
0.0
 11
8.96278
 21
25.9333
 31
0.0
  0
LINE
  8
0
 62
     0
 10
8.96278
 20
25.9333
 30
0.0
 11
8.96278
 21
22.8327
 31
0.0
  0
LINE
  8
0
 62
     0
 10
8.96278
 20
22.8327
 30
0.0
 11
9.76203
 21
22.8327
 31
0.0
  0
LINE
  8
0
 62
     0
 10
9.76203
 20
22.8327
 30
0.0
 11
9.76203
 21
21.8336
 31
0.0
  0
LINE
  8
0
 62
     0
 10
9.76203
 20
21.8336
 30
0.0
 11
23.7629
 21
21.8336
 31
0.0
  0
LINE
  8
0
 62
     0
 10
23.7629
 20
21.8336
 30
0.0
 11
23.7629
 21
22.8327
 31
0.0
  0
LINE
  8
0
 62
     0
 10
23.7629
 20
22.8327
 30
0.0
 11
24.5622
 21
22.8327
 31
0.0
  0
LINE
  8
0
 62
     0
 10
24.5622
 20
22.8327
 30
0.0
 11
24.5622
 21
25.9333
 31
0.0
  0
LINE
  8
0
 62
     0
 10
24.5622
 20
25.9333
 30
0.0
 11
23.7629
 21
25.9333
 31
0.0
  0
LINE
  8
0
 62
     0
 10
23.7629
 20
25.9333
 30
0.0
 11
23.7629
 21
31.7335
 31
0.0
  0
LINE
  8
0
 62
     0
 10
23.7629
 20
31.7335
 30
0.0
 11
24.5622
 21
31.7335
 31
0.0
  0
LINE
  8
0
 62
     0
 10
24.5622
 20
31.7335
 30
0.0
 11
24.5622
 21
34.8327
 31
0.0
  0
LINE
  8
0
 62
     0
 10
24.5622
 20
34.8327
 30
0.0
 11
23.7629
 21
34.8327
 31
0.0
  0
LINE
  8
0
 62
     0
 10
23.7629
 20
34.8327
 30
0.0
 11
23.7629
 21
35.833
 31
0.0
  0
LINE
  8
0
 62
     0
 10
23.7629
 20
35.833
 30
0.0
 11
9.76203
 21
35.833
 31
0.0
  0
LINE
  8
0
 62
     0
 10
224.076
 20
54.8831
 30
0.0
 11
224.076
 21
53.8826
 31
0.0
  0
LINE
  8
0
 62
     0
 10
224.076
 20
53.8826
 30
0.0
 11
223.275
 21
53.8826
 31
0.0
  0
LINE
  8
0
 62
     0
 10
223.275
 20
53.8826
 30
0.0
 11
223.275
 21
50.7834
 31
0.0
  0
LINE
  8
0
 62
     0
 10
223.275
 20
50.7834
 30
0.0
 11
224.076
 21
50.7834
 31
0.0
  0
LINE
  8
0
 62
     0
 10
224.076
 20
50.7834
 30
0.0
 11
224.076
 21
44.9834
 31
0.0
  0
LINE
  8
0
 62
     0
 10
224.076
 20
44.9834
 30
0.0
 11
223.275
 21
44.9834
 31
0.0
  0
LINE
  8
0
 62
     0
 10
223.275
 20
44.9834
 30
0.0
 11
223.275
 21
41.8828
 31
0.0
  0
LINE
  8
0
 62
     0
 10
223.275
 20
41.8828
 30
0.0
 11
224.076
 21
41.8828
 31
0.0
  0
LINE
  8
0
 62
     0
 10
224.076
 20
41.8828
 30
0.0
 11
224.076
 21
40.8838
 31
0.0
  0
LINE
  8
0
 62
     0
 10
224.076
 20
40.8838
 30
0.0
 11
238.075
 21
40.8838
 31
0.0
  0
LINE
  8
0
 62
     0
 10
238.075
 20
40.8838
 30
0.0
 11
238.075
 21
41.8828
 31
0.0
  0
LINE
  8
0
 62
     0
 10
238.075
 20
41.8828
 30
0.0
 11
238.876
 21
41.8828
 31
0.0
  0
LINE
  8
0
 62
     0
 10
238.876
 20
41.8828
 30
0.0
 11
238.876
 21
44.9834
 31
0.0
  0
LINE
  8
0
 62
     0
 10
238.876
 20
44.9834
 30
0.0
 11
238.075
 21
44.9834
 31
0.0
  0
LINE
  8
0
 62
     0
 10
238.075
 20
44.9834
 30
0.0
 11
238.075
 21
50.7834
 31
0.0
  0
LINE
  8
0
 62
     0
 10
238.075
 20
50.7834
 30
0.0
 11
238.876
 21
50.7834
 31
0.0
  0
LINE
  8
0
 62
     0
 10
238.876
 20
50.7834
 30
0.0
 11
238.876
 21
53.8826
 31
0.0
  0
LINE
  8
0
 62
     0
 10
238.876
 20
53.8826
 30
0.0
 11
238.075
 21
53.8826
 31
0.0
  0
LINE
  8
0
 62
     0
 10
238.075
 20
53.8826
 30
0.0
 11
238.075
 21
54.8831
 31
0.0
  0
LINE
  8
0
 62
     0
 10
238.075
 20
54.8831
 30
0.0
 11
224.076
 21
54.8831
 31
0.0
  0
LINE
  8
0
 62
     0
 10
197.882
 20
54.8831
 30
0.0
 11
197.882
 21
53.8826
 31
0.0
  0
LINE
  8
0
 62
     0
 10
197.882
 20
53.8826
 30
0.0
 11
197.081
 21
53.8826
 31
0.0
  0
LINE
  8
0
 62
     0
 10
197.081
 20
53.8826
 30
0.0
 11
197.081
 21
50.7834
 31
0.0
  0
LINE
  8
0
 62
     0
 10
197.081
 20
50.7834
 30
0.0
 11
197.882
 21
50.7834
 31
0.0
  0
LINE
  8
0
 62
     0
 10
197.882
 20
50.7834
 30
0.0
 11
197.882
 21
44.9834
 31
0.0
  0
LINE
  8
0
 62
     0
 10
197.882
 20
44.9834
 30
0.0
 11
197.081
 21
44.9834
 31
0.0
  0
LINE
  8
0
 62
     0
 10
197.081
 20
44.9834
 30
0.0
 11
197.081
 21
41.8828
 31
0.0
  0
LINE
  8
0
 62
     0
 10
197.081
 20
41.8828
 30
0.0
 11
197.882
 21
41.8828
 31
0.0
  0
LINE
  8
0
 62
     0
 10
197.882
 20
41.8828
 30
0.0
 11
197.882
 21
40.8838
 31
0.0
  0
LINE
  8
0
 62
     0
 10
197.882
 20
40.8838
 30
0.0
 11
211.882
 21
40.8838
 31
0.0
  0
LINE
  8
0
 62
     0
 10
211.882
 20
40.8838
 30
0.0
 11
211.882
 21
41.8828
 31
0.0
  0
LINE
  8
0
 62
     0
 10
211.882
 20
41.8828
 30
0.0
 11
212.681
 21
41.8828
 31
0.0
  0
LINE
  8
0
 62
     0
 10
212.681
 20
41.8828
 30
0.0
 11
212.681
 21
44.9834
 31
0.0
  0
LINE
  8
0
 62
     0
 10
212.681
 20
44.9834
 30
0.0
 11
211.882
 21
44.9834
 31
0.0
  0
LINE
  8
0
 62
     0
 10
211.882
 20
44.9834
 30
0.0
 11
211.882
 21
50.7834
 31
0.0
  0
LINE
  8
0
 62
     0
 10
211.882
 20
50.7834
 30
0.0
 11
212.681
 21
50.7834
 31
0.0
  0
LINE
  8
0
 62
     0
 10
212.681
 20
50.7834
 30
0.0
 11
212.681
 21
53.8826
 31
0.0
  0
LINE
  8
0
 62
     0
 10
212.681
 20
53.8826
 30
0.0
 11
211.882
 21
53.8826
 31
0.0
  0
LINE
  8
0
 62
     0
 10
211.882
 20
53.8826
 30
0.0
 11
211.882
 21
54.8831
 31
0.0
  0
LINE
  8
0
 62
     0
 10
211.882
 20
54.8831
 30
0.0
 11
197.882
 21
54.8831
 31
0.0
  0
LINE
  8
0
 62
     0
 10
178.832
 20
54.8831
 30
0.0
 11
178.832
 21
53.8826
 31
0.0
  0
LINE
  8
0
 62
     0
 10
178.832
 20
53.8826
 30
0.0
 11
178.031
 21
53.8826
 31
0.0
  0
LINE
  8
0
 62
     0
 10
178.031
 20
53.8826
 30
0.0
 11
178.031
 21
50.7834
 31
0.0
  0
LINE
  8
0
 62
     0
 10
178.031
 20
50.7834
 30
0.0
 11
178.832
 21
50.7834
 31
0.0
  0
LINE
  8
0
 62
     0
 10
178.832
 20
50.7834
 30
0.0
 11
178.832
 21
44.9834
 31
0.0
  0
LINE
  8
0
 62
     0
 10
178.832
 20
44.9834
 30
0.0
 11
178.031
 21
44.9834
 31
0.0
  0
LINE
  8
0
 62
     0
 10
178.031
 20
44.9834
 30
0.0
 11
178.031
 21
41.8828
 31
0.0
  0
LINE
  8
0
 62
     0
 10
178.031
 20
41.8828
 30
0.0
 11
178.832
 21
41.8828
 31
0.0
  0
LINE
  8
0
 62
     0
 10
178.832
 20
41.8828
 30
0.0
 11
178.832
 21
40.8838
 31
0.0
  0
LINE
  8
0
 62
     0
 10
178.832
 20
40.8838
 30
0.0
 11
192.832
 21
40.8838
 31
0.0
  0
LINE
  8
0
 62
     0
 10
192.832
 20
40.8838
 30
0.0
 11
192.832
 21
41.8828
 31
0.0
  0
LINE
  8
0
 62
     0
 10
192.832
 20
41.8828
 30
0.0
 11
193.631
 21
41.8828
 31
0.0
  0
LINE
  8
0
 62
     0
 10
193.631
 20
41.8828
 30
0.0
 11
193.631
 21
44.9834
 31
0.0
  0
LINE
  8
0
 62
     0
 10
193.631
 20
44.9834
 30
0.0
 11
192.832
 21
44.9834
 31
0.0
  0
LINE
  8
0
 62
     0
 10
192.832
 20
44.9834
 30
0.0
 11
192.832
 21
50.7834
 31
0.0
  0
LINE
  8
0
 62
     0
 10
192.832
 20
50.7834
 30
0.0
 11
193.631
 21
50.7834
 31
0.0
  0
LINE
  8
0
 62
     0
 10
193.631
 20
50.7834
 30
0.0
 11
193.631
 21
53.8826
 31
0.0
  0
LINE
  8
0
 62
     0
 10
193.631
 20
53.8826
 30
0.0
 11
192.832
 21
53.8826
 31
0.0
  0
LINE
  8
0
 62
     0
 10
192.832
 20
53.8826
 30
0.0
 11
192.832
 21
54.8831
 31
0.0
  0
LINE
  8
0
 62
     0
 10
192.832
 20
54.8831
 30
0.0
 11
178.832
 21
54.8831
 31
0.0
  0
LINE
  8
0
 62
     0
 10
159.782
 20
54.8831
 30
0.0
 11
159.782
 21
53.8826
 31
0.0
  0
LINE
  8
0
 62
     0
 10
159.782
 20
53.8826
 30
0.0
 11
158.981
 21
53.8826
 31
0.0
  0
LINE
  8
0
 62
     0
 10
158.981
 20
53.8826
 30
0.0
 11
158.981
 21
50.7834
 31
0.0
  0
LINE
  8
0
 62
     0
 10
158.981
 20
50.7834
 30
0.0
 11
159.782
 21
50.7834
 31
0.0
  0
LINE
  8
0
 62
     0
 10
159.782
 20
50.7834
 30
0.0
 11
159.782
 21
44.9834
 31
0.0
  0
LINE
  8
0
 62
     0
 10
159.782
 20
44.9834
 30
0.0
 11
158.981
 21
44.9834
 31
0.0
  0
LINE
  8
0
 62
     0
 10
158.981
 20
44.9834
 30
0.0
 11
158.981
 21
41.8828
 31
0.0
  0
LINE
  8
0
 62
     0
 10
158.981
 20
41.8828
 30
0.0
 11
159.782
 21
41.8828
 31
0.0
  0
LINE
  8
0
 62
     0
 10
159.782
 20
41.8828
 30
0.0
 11
159.782
 21
40.8838
 31
0.0
  0
LINE
  8
0
 62
     0
 10
159.782
 20
40.8838
 30
0.0
 11
173.782
 21
40.8838
 31
0.0
  0
LINE
  8
0
 62
     0
 10
173.782
 20
40.8838
 30
0.0
 11
173.782
 21
41.8828
 31
0.0
  0
LINE
  8
0
 62
     0
 10
173.782
 20
41.8828
 30
0.0
 11
174.581
 21
41.8828
 31
0.0
  0
LINE
  8
0
 62
     0
 10
174.581
 20
41.8828
 30
0.0
 11
174.581
 21
44.9834
 31
0.0
  0
LINE
  8
0
 62
     0
 10
174.581
 20
44.9834
 30
0.0
 11
173.782
 21
44.9834
 31
0.0
  0
LINE
  8
0
 62
     0
 10
173.782
 20
44.9834
 30
0.0
 11
173.782
 21
50.7834
 31
0.0
  0
LINE
  8
0
 62
     0
 10
173.782
 20
50.7834
 30
0.0
 11
174.581
 21
50.7834
 31
0.0
  0
LINE
  8
0
 62
     0
 10
174.581
 20
50.7834
 30
0.0
 11
174.581
 21
53.8826
 31
0.0
  0
LINE
  8
0
 62
     0
 10
174.581
 20
53.8826
 30
0.0
 11
173.782
 21
53.8826
 31
0.0
  0
LINE
  8
0
 62
     0
 10
173.782
 20
53.8826
 30
0.0
 11
173.782
 21
54.8831
 31
0.0
  0
LINE
  8
0
 62
     0
 10
173.782
 20
54.8831
 30
0.0
 11
159.782
 21
54.8831
 31
0.0
  0
LINE
  8
0
 62
     0
 10
140.732
 20
54.8831
 30
0.0
 11
140.732
 21
53.8826
 31
0.0
  0
LINE
  8
0
 62
     0
 10
140.732
 20
53.8826
 30
0.0
 11
139.931
 21
53.8826
 31
0.0
  0
LINE
  8
0
 62
     0
 10
139.931
 20
53.8826
 30
0.0
 11
139.931
 21
50.7834
 31
0.0
  0
LINE
  8
0
 62
     0
 10
139.931
 20
50.7834
 30
0.0
 11
140.732
 21
50.7834
 31
0.0
  0
LINE
  8
0
 62
     0
 10
140.732
 20
50.7834
 30
0.0
 11
140.732
 21
44.9834
 31
0.0
  0
LINE
  8
0
 62
     0
 10
140.732
 20
44.9834
 30
0.0
 11
139.931
 21
44.9834
 31
0.0
  0
LINE
  8
0
 62
     0
 10
139.931
 20
44.9834
 30
0.0
 11
139.931
 21
41.8828
 31
0.0
  0
LINE
  8
0
 62
     0
 10
139.931
 20
41.8828
 30
0.0
 11
140.732
 21
41.8828
 31
0.0
  0
LINE
  8
0
 62
     0
 10
140.732
 20
41.8828
 30
0.0
 11
140.732
 21
40.8838
 31
0.0
  0
LINE
  8
0
 62
     0
 10
140.732
 20
40.8838
 30
0.0
 11
154.732
 21
40.8838
 31
0.0
  0
LINE
  8
0
 62
     0
 10
154.732
 20
40.8838
 30
0.0
 11
154.732
 21
41.8828
 31
0.0
  0
LINE
  8
0
 62
     0
 10
154.732
 20
41.8828
 30
0.0
 11
155.531
 21
41.8828
 31
0.0
  0
LINE
  8
0
 62
     0
 10
155.531
 20
41.8828
 30
0.0
 11
155.531
 21
44.9834
 31
0.0
  0
LINE
  8
0
 62
     0
 10
155.531
 20
44.9834
 30
0.0
 11
154.732
 21
44.9834
 31
0.0
  0
LINE
  8
0
 62
     0
 10
154.732
 20
44.9834
 30
0.0
 11
154.732
 21
50.7834
 31
0.0
  0
LINE
  8
0
 62
     0
 10
154.732
 20
50.7834
 30
0.0
 11
155.531
 21
50.7834
 31
0.0
  0
LINE
  8
0
 62
     0
 10
155.531
 20
50.7834
 30
0.0
 11
155.531
 21
53.8826
 31
0.0
  0
LINE
  8
0
 62
     0
 10
155.531
 20
53.8826
 30
0.0
 11
154.732
 21
53.8826
 31
0.0
  0
LINE
  8
0
 62
     0
 10
154.732
 20
53.8826
 30
0.0
 11
154.732
 21
54.8831
 31
0.0
  0
LINE
  8
0
 62
     0
 10
154.732
 20
54.8831
 30
0.0
 11
140.732
 21
54.8831
 31
0.0
  0
LINE
  8
0
 62
     0
 10
121.682
 20
54.8831
 30
0.0
 11
121.682
 21
53.8826
 31
0.0
  0
LINE
  8
0
 62
     0
 10
121.682
 20
53.8826
 30
0.0
 11
120.881
 21
53.8826
 31
0.0
  0
LINE
  8
0
 62
     0
 10
120.881
 20
53.8826
 30
0.0
 11
120.881
 21
50.7834
 31
0.0
  0
LINE
  8
0
 62
     0
 10
120.881
 20
50.7834
 30
0.0
 11
121.682
 21
50.7834
 31
0.0
  0
LINE
  8
0
 62
     0
 10
121.682
 20
50.7834
 30
0.0
 11
121.682
 21
44.9834
 31
0.0
  0
LINE
  8
0
 62
     0
 10
121.682
 20
44.9834
 30
0.0
 11
120.881
 21
44.9834
 31
0.0
  0
LINE
  8
0
 62
     0
 10
120.881
 20
44.9834
 30
0.0
 11
120.881
 21
41.8828
 31
0.0
  0
LINE
  8
0
 62
     0
 10
120.881
 20
41.8828
 30
0.0
 11
121.682
 21
41.8828
 31
0.0
  0
LINE
  8
0
 62
     0
 10
121.682
 20
41.8828
 30
0.0
 11
121.682
 21
40.8838
 31
0.0
  0
LINE
  8
0
 62
     0
 10
121.682
 20
40.8838
 30
0.0
 11
135.682
 21
40.8838
 31
0.0
  0
LINE
  8
0
 62
     0
 10
135.682
 20
40.8838
 30
0.0
 11
135.682
 21
41.8828
 31
0.0
  0
LINE
  8
0
 62
     0
 10
135.682
 20
41.8828
 30
0.0
 11
136.481
 21
41.8828
 31
0.0
  0
LINE
  8
0
 62
     0
 10
136.481
 20
41.8828
 30
0.0
 11
136.481
 21
44.9834
 31
0.0
  0
LINE
  8
0
 62
     0
 10
136.481
 20
44.9834
 30
0.0
 11
135.682
 21
44.9834
 31
0.0
  0
LINE
  8
0
 62
     0
 10
135.682
 20
44.9834
 30
0.0
 11
135.682
 21
50.7834
 31
0.0
  0
LINE
  8
0
 62
     0
 10
135.682
 20
50.7834
 30
0.0
 11
136.481
 21
50.7834
 31
0.0
  0
LINE
  8
0
 62
     0
 10
136.481
 20
50.7834
 30
0.0
 11
136.481
 21
53.8826
 31
0.0
  0
LINE
  8
0
 62
     0
 10
136.481
 20
53.8826
 30
0.0
 11
135.682
 21
53.8826
 31
0.0
  0
LINE
  8
0
 62
     0
 10
135.682
 20
53.8826
 30
0.0
 11
135.682
 21
54.8831
 31
0.0
  0
LINE
  8
0
 62
     0
 10
135.682
 20
54.8831
 30
0.0
 11
121.682
 21
54.8831
 31
0.0
  0
LINE
  8
0
 62
     0
 10
102.632
 20
54.8831
 30
0.0
 11
102.632
 21
53.8826
 31
0.0
  0
LINE
  8
0
 62
     0
 10
102.632
 20
53.8826
 30
0.0
 11
101.831
 21
53.8826
 31
0.0
  0
LINE
  8
0
 62
     0
 10
101.831
 20
53.8826
 30
0.0
 11
101.831
 21
50.7834
 31
0.0
  0
LINE
  8
0
 62
     0
 10
101.831
 20
50.7834
 30
0.0
 11
102.632
 21
50.7834
 31
0.0
  0
LINE
  8
0
 62
     0
 10
102.632
 20
50.7834
 30
0.0
 11
102.632
 21
44.9834
 31
0.0
  0
LINE
  8
0
 62
     0
 10
102.632
 20
44.9834
 30
0.0
 11
101.831
 21
44.9834
 31
0.0
  0
LINE
  8
0
 62
     0
 10
101.831
 20
44.9834
 30
0.0
 11
101.831
 21
41.8828
 31
0.0
  0
LINE
  8
0
 62
     0
 10
101.831
 20
41.8828
 30
0.0
 11
102.632
 21
41.8828
 31
0.0
  0
LINE
  8
0
 62
     0
 10
102.632
 20
41.8828
 30
0.0
 11
102.632
 21
40.8838
 31
0.0
  0
LINE
  8
0
 62
     0
 10
102.632
 20
40.8838
 30
0.0
 11
116.632
 21
40.8838
 31
0.0
  0
LINE
  8
0
 62
     0
 10
116.632
 20
40.8838
 30
0.0
 11
116.632
 21
41.8828
 31
0.0
  0
LINE
  8
0
 62
     0
 10
116.632
 20
41.8828
 30
0.0
 11
117.431
 21
41.8828
 31
0.0
  0
LINE
  8
0
 62
     0
 10
117.431
 20
41.8828
 30
0.0
 11
117.431
 21
44.9834
 31
0.0
  0
LINE
  8
0
 62
     0
 10
117.431
 20
44.9834
 30
0.0
 11
116.632
 21
44.9834
 31
0.0
  0
LINE
  8
0
 62
     0
 10
116.632
 20
44.9834
 30
0.0
 11
116.632
 21
50.7834
 31
0.0
  0
LINE
  8
0
 62
     0
 10
116.632
 20
50.7834
 30
0.0
 11
117.431
 21
50.7834
 31
0.0
  0
LINE
  8
0
 62
     0
 10
117.431
 20
50.7834
 30
0.0
 11
117.431
 21
53.8826
 31
0.0
  0
LINE
  8
0
 62
     0
 10
117.431
 20
53.8826
 30
0.0
 11
116.632
 21
53.8826
 31
0.0
  0
LINE
  8
0
 62
     0
 10
116.632
 20
53.8826
 30
0.0
 11
116.632
 21
54.8831
 31
0.0
  0
LINE
  8
0
 62
     0
 10
116.632
 20
54.8831
 30
0.0
 11
102.632
 21
54.8831
 31
0.0
  0
LINE
  8
0
 62
     0
 10
83.5822
 20
54.8831
 30
0.0
 11
83.5822
 21
53.8826
 31
0.0
  0
LINE
  8
0
 62
     0
 10
83.5822
 20
53.8826
 30
0.0
 11
82.7814
 21
53.8826
 31
0.0
  0
LINE
  8
0
 62
     0
 10
82.7814
 20
53.8826
 30
0.0
 11
82.7814
 21
50.7834
 31
0.0
  0
LINE
  8
0
 62
     0
 10
82.7814
 20
50.7834
 30
0.0
 11
83.5822
 21
50.7834
 31
0.0
  0
LINE
  8
0
 62
     0
 10
83.5822
 20
50.7834
 30
0.0
 11
83.5822
 21
44.9834
 31
0.0
  0
LINE
  8
0
 62
     0
 10
83.5822
 20
44.9834
 30
0.0
 11
82.7814
 21
44.9834
 31
0.0
  0
LINE
  8
0
 62
     0
 10
82.7814
 20
44.9834
 30
0.0
 11
82.7814
 21
41.8828
 31
0.0
  0
LINE
  8
0
 62
     0
 10
82.7814
 20
41.8828
 30
0.0
 11
83.5822
 21
41.8828
 31
0.0
  0
LINE
  8
0
 62
     0
 10
83.5822
 20
41.8828
 30
0.0
 11
83.5822
 21
40.8838
 31
0.0
  0
LINE
  8
0
 62
     0
 10
83.5822
 20
40.8838
 30
0.0
 11
97.5815
 21
40.8838
 31
0.0
  0
LINE
  8
0
 62
     0
 10
97.5815
 20
40.8838
 30
0.0
 11
97.5815
 21
41.8828
 31
0.0
  0
LINE
  8
0
 62
     0
 10
97.5815
 20
41.8828
 30
0.0
 11
98.3809
 21
41.8828
 31
0.0
  0
LINE
  8
0
 62
     0
 10
98.3809
 20
41.8828
 30
0.0
 11
98.3809
 21
44.9834
 31
0.0
  0
LINE
  8
0
 62
     0
 10
98.3809
 20
44.9834
 30
0.0
 11
97.5815
 21
44.9834
 31
0.0
  0
LINE
  8
0
 62
     0
 10
97.5815
 20
44.9834
 30
0.0
 11
97.5815
 21
50.7834
 31
0.0
  0
LINE
  8
0
 62
     0
 10
97.5815
 20
50.7834
 30
0.0
 11
98.3809
 21
50.7834
 31
0.0
  0
LINE
  8
0
 62
     0
 10
98.3809
 20
50.7834
 30
0.0
 11
98.3809
 21
53.8826
 31
0.0
  0
LINE
  8
0
 62
     0
 10
98.3809
 20
53.8826
 30
0.0
 11
97.5815
 21
53.8826
 31
0.0
  0
LINE
  8
0
 62
     0
 10
97.5815
 20
53.8826
 30
0.0
 11
97.5815
 21
54.8831
 31
0.0
  0
LINE
  8
0
 62
     0
 10
97.5815
 20
54.8831
 30
0.0
 11
83.5822
 21
54.8831
 31
0.0
  0
LINE
  8
0
 62
     0
 10
64.5322
 20
54.8831
 30
0.0
 11
64.5322
 21
53.8826
 31
0.0
  0
LINE
  8
0
 62
     0
 10
64.5322
 20
53.8826
 30
0.0
 11
63.7314
 21
53.8826
 31
0.0
  0
LINE
  8
0
 62
     0
 10
63.7314
 20
53.8826
 30
0.0
 11
63.7314
 21
50.7834
 31
0.0
  0
LINE
  8
0
 62
     0
 10
63.7314
 20
50.7834
 30
0.0
 11
64.5322
 21
50.7834
 31
0.0
  0
LINE
  8
0
 62
     0
 10
64.5322
 20
50.7834
 30
0.0
 11
64.5322
 21
44.9834
 31
0.0
  0
LINE
  8
0
 62
     0
 10
64.5322
 20
44.9834
 30
0.0
 11
63.7314
 21
44.9834
 31
0.0
  0
LINE
  8
0
 62
     0
 10
63.7314
 20
44.9834
 30
0.0
 11
63.7314
 21
41.8828
 31
0.0
  0
LINE
  8
0
 62
     0
 10
63.7314
 20
41.8828
 30
0.0
 11
64.5322
 21
41.8828
 31
0.0
  0
LINE
  8
0
 62
     0
 10
64.5322
 20
41.8828
 30
0.0
 11
64.5322
 21
40.8838
 31
0.0
  0
LINE
  8
0
 62
     0
 10
64.5322
 20
40.8838
 30
0.0
 11
78.5315
 21
40.8838
 31
0.0
  0
LINE
  8
0
 62
     0
 10
78.5315
 20
40.8838
 30
0.0
 11
78.5315
 21
41.8828
 31
0.0
  0
LINE
  8
0
 62
     0
 10
78.5315
 20
41.8828
 30
0.0
 11
79.3309
 21
41.8828
 31
0.0
  0
LINE
  8
0
 62
     0
 10
79.3309
 20
41.8828
 30
0.0
 11
79.3309
 21
44.9834
 31
0.0
  0
LINE
  8
0
 62
     0
 10
79.3309
 20
44.9834
 30
0.0
 11
78.5315
 21
44.9834
 31
0.0
  0
LINE
  8
0
 62
     0
 10
78.5315
 20
44.9834
 30
0.0
 11
78.5315
 21
50.7834
 31
0.0
  0
LINE
  8
0
 62
     0
 10
78.5315
 20
50.7834
 30
0.0
 11
79.3309
 21
50.7834
 31
0.0
  0
LINE
  8
0
 62
     0
 10
79.3309
 20
50.7834
 30
0.0
 11
79.3309
 21
53.8826
 31
0.0
  0
LINE
  8
0
 62
     0
 10
79.3309
 20
53.8826
 30
0.0
 11
78.5315
 21
53.8826
 31
0.0
  0
LINE
  8
0
 62
     0
 10
78.5315
 20
53.8826
 30
0.0
 11
78.5315
 21
54.8831
 31
0.0
  0
LINE
  8
0
 62
     0
 10
78.5315
 20
54.8831
 30
0.0
 11
64.5322
 21
54.8831
 31
0.0
  0
LINE
  8
0
 62
     0
 10
45.4822
 20
54.8831
 30
0.0
 11
45.4822
 21
53.8826
 31
0.0
  0
LINE
  8
0
 62
     0
 10
45.4822
 20
53.8826
 30
0.0
 11
44.6814
 21
53.8826
 31
0.0
  0
LINE
  8
0
 62
     0
 10
44.6814
 20
53.8826
 30
0.0
 11
44.6814
 21
50.7834
 31
0.0
  0
LINE
  8
0
 62
     0
 10
44.6814
 20
50.7834
 30
0.0
 11
45.4822
 21
50.7834
 31
0.0
  0
LINE
  8
0
 62
     0
 10
45.4822
 20
50.7834
 30
0.0
 11
45.4822
 21
44.9834
 31
0.0
  0
LINE
  8
0
 62
     0
 10
45.4822
 20
44.9834
 30
0.0
 11
44.6814
 21
44.9834
 31
0.0
  0
LINE
  8
0
 62
     0
 10
44.6814
 20
44.9834
 30
0.0
 11
44.6814
 21
41.8828
 31
0.0
  0
LINE
  8
0
 62
     0
 10
44.6814
 20
41.8828
 30
0.0
 11
45.4822
 21
41.8828
 31
0.0
  0
LINE
  8
0
 62
     0
 10
45.4822
 20
41.8828
 30
0.0
 11
45.4822
 21
40.8838
 31
0.0
  0
LINE
  8
0
 62
     0
 10
45.4822
 20
40.8838
 30
0.0
 11
59.4815
 21
40.8838
 31
0.0
  0
LINE
  8
0
 62
     0
 10
59.4815
 20
40.8838
 30
0.0
 11
59.4815
 21
41.8828
 31
0.0
  0
LINE
  8
0
 62
     0
 10
59.4815
 20
41.8828
 30
0.0
 11
60.2809
 21
41.8828
 31
0.0
  0
LINE
  8
0
 62
     0
 10
60.2809
 20
41.8828
 30
0.0
 11
60.2809
 21
44.9834
 31
0.0
  0
LINE
  8
0
 62
     0
 10
60.2809
 20
44.9834
 30
0.0
 11
59.4815
 21
44.9834
 31
0.0
  0
LINE
  8
0
 62
     0
 10
59.4815
 20
44.9834
 30
0.0
 11
59.4815
 21
50.7834
 31
0.0
  0
LINE
  8
0
 62
     0
 10
59.4815
 20
50.7834
 30
0.0
 11
60.2809
 21
50.7834
 31
0.0
  0
LINE
  8
0
 62
     0
 10
60.2809
 20
50.7834
 30
0.0
 11
60.2809
 21
53.8826
 31
0.0
  0
LINE
  8
0
 62
     0
 10
60.2809
 20
53.8826
 30
0.0
 11
59.4815
 21
53.8826
 31
0.0
  0
LINE
  8
0
 62
     0
 10
59.4815
 20
53.8826
 30
0.0
 11
59.4815
 21
54.8831
 31
0.0
  0
LINE
  8
0
 62
     0
 10
59.4815
 20
54.8831
 30
0.0
 11
45.4822
 21
54.8831
 31
0.0
  0
LINE
  8
0
 62
     0
 10
26.4322
 20
54.8831
 30
0.0
 11
26.4322
 21
53.8826
 31
0.0
  0
LINE
  8
0
 62
     0
 10
26.4322
 20
53.8826
 30
0.0
 11
25.6315
 21
53.8826
 31
0.0
  0
LINE
  8
0
 62
     0
 10
25.6315
 20
53.8826
 30
0.0
 11
25.6315
 21
50.7834
 31
0.0
  0
LINE
  8
0
 62
     0
 10
25.6315
 20
50.7834
 30
0.0
 11
26.4322
 21
50.7834
 31
0.0
  0
LINE
  8
0
 62
     0
 10
26.4322
 20
50.7834
 30
0.0
 11
26.4322
 21
44.9834
 31
0.0
  0
LINE
  8
0
 62
     0
 10
26.4322
 20
44.9834
 30
0.0
 11
25.6315
 21
44.9834
 31
0.0
  0
LINE
  8
0
 62
     0
 10
25.6315
 20
44.9834
 30
0.0
 11
25.6315
 21
41.8828
 31
0.0
  0
LINE
  8
0
 62
     0
 10
25.6315
 20
41.8828
 30
0.0
 11
26.4322
 21
41.8828
 31
0.0
  0
LINE
  8
0
 62
     0
 10
26.4322
 20
41.8828
 30
0.0
 11
26.4322
 21
40.8838
 31
0.0
  0
LINE
  8
0
 62
     0
 10
26.4322
 20
40.8838
 30
0.0
 11
40.4315
 21
40.8838
 31
0.0
  0
LINE
  8
0
 62
     0
 10
40.4315
 20
40.8838
 30
0.0
 11
40.4315
 21
41.8828
 31
0.0
  0
LINE
  8
0
 62
     0
 10
40.4315
 20
41.8828
 30
0.0
 11
41.2309
 21
41.8828
 31
0.0
  0
LINE
  8
0
 62
     0
 10
41.2309
 20
41.8828
 30
0.0
 11
41.2309
 21
44.9834
 31
0.0
  0
LINE
  8
0
 62
     0
 10
41.2309
 20
44.9834
 30
0.0
 11
40.4315
 21
44.9834
 31
0.0
  0
LINE
  8
0
 62
     0
 10
40.4315
 20
44.9834
 30
0.0
 11
40.4315
 21
50.7834
 31
0.0
  0
LINE
  8
0
 62
     0
 10
40.4315
 20
50.7834
 30
0.0
 11
41.2309
 21
50.7834
 31
0.0
  0
LINE
  8
0
 62
     0
 10
41.2309
 20
50.7834
 30
0.0
 11
41.2309
 21
53.8826
 31
0.0
  0
LINE
  8
0
 62
     0
 10
41.2309
 20
53.8826
 30
0.0
 11
40.4315
 21
53.8826
 31
0.0
  0
LINE
  8
0
 62
     0
 10
40.4315
 20
53.8826
 30
0.0
 11
40.4315
 21
54.8831
 31
0.0
  0
LINE
  8
0
 62
     0
 10
40.4315
 20
54.8831
 30
0.0
 11
26.4322
 21
54.8831
 31
0.0
  0
LINE
  8
0
 62
     0
 10
5.00091
 20
54.8831
 30
0.0
 11
5.00091
 21
53.8826
 31
0.0
  0
LINE
  8
0
 62
     0
 10
5.00091
 20
53.8826
 30
0.0
 11
4.20028
 21
53.8826
 31
0.0
  0
LINE
  8
0
 62
     0
 10
4.20028
 20
53.8826
 30
0.0
 11
4.20028
 21
50.7834
 31
0.0
  0
LINE
  8
0
 62
     0
 10
4.20028
 20
50.7834
 30
0.0
 11
5.00091
 21
50.7834
 31
0.0
  0
LINE
  8
0
 62
     0
 10
5.00091
 20
50.7834
 30
0.0
 11
5.00091
 21
44.9834
 31
0.0
  0
LINE
  8
0
 62
     0
 10
5.00091
 20
44.9834
 30
0.0
 11
4.20028
 21
44.9834
 31
0.0
  0
LINE
  8
0
 62
     0
 10
4.20028
 20
44.9834
 30
0.0
 11
4.20028
 21
41.8828
 31
0.0
  0
LINE
  8
0
 62
     0
 10
4.20028
 20
41.8828
 30
0.0
 11
5.00091
 21
41.8828
 31
0.0
  0
LINE
  8
0
 62
     0
 10
5.00091
 20
41.8828
 30
0.0
 11
5.00091
 21
40.8838
 31
0.0
  0
LINE
  8
0
 62
     0
 10
5.00091
 20
40.8838
 30
0.0
 11
19.0004
 21
40.8838
 31
0.0
  0
LINE
  8
0
 62
     0
 10
19.0004
 20
40.8838
 30
0.0
 11
19.0004
 21
41.8828
 31
0.0
  0
LINE
  8
0
 62
     0
 10
19.0004
 20
41.8828
 30
0.0
 11
19.801
 21
41.8828
 31
0.0
  0
LINE
  8
0
 62
     0
 10
19.801
 20
41.8828
 30
0.0
 11
19.801
 21
44.9834
 31
0.0
  0
LINE
  8
0
 62
     0
 10
19.801
 20
44.9834
 30
0.0
 11
19.0004
 21
44.9834
 31
0.0
  0
LINE
  8
0
 62
     0
 10
19.0004
 20
44.9834
 30
0.0
 11
19.0004
 21
50.7834
 31
0.0
  0
LINE
  8
0
 62
     0
 10
19.0004
 20
50.7834
 30
0.0
 11
19.801
 21
50.7834
 31
0.0
  0
LINE
  8
0
 62
     0
 10
19.801
 20
50.7834
 30
0.0
 11
19.801
 21
53.8826
 31
0.0
  0
LINE
  8
0
 62
     0
 10
19.801
 20
53.8826
 30
0.0
 11
19.0004
 21
53.8826
 31
0.0
  0
LINE
  8
0
 62
     0
 10
19.0004
 20
53.8826
 30
0.0
 11
19.0004
 21
54.8831
 31
0.0
  0
LINE
  8
0
 62
     0
 10
19.0004
 20
54.8831
 30
0.0
 11
5.00091
 21
54.8831
 31
0.0
  0
LINE
  8
0
 62
     0
 10
221.695
 20
73.9331
 30
0.0
 11
221.695
 21
72.9326
 31
0.0
  0
LINE
  8
0
 62
     0
 10
221.695
 20
72.9326
 30
0.0
 11
220.894
 21
72.9326
 31
0.0
  0
LINE
  8
0
 62
     0
 10
220.894
 20
72.9326
 30
0.0
 11
220.894
 21
69.8334
 31
0.0
  0
LINE
  8
0
 62
     0
 10
220.894
 20
69.8334
 30
0.0
 11
221.695
 21
69.8334
 31
0.0
  0
LINE
  8
0
 62
     0
 10
221.695
 20
69.8334
 30
0.0
 11
221.695
 21
69.2326
 31
0.0
  0
LINE
  8
0
 62
     0
 10
221.695
 20
69.2326
 30
0.0
 11
220.169
 21
69.2326
 31
0.0
  0
LINE
  8
0
 62
     0
 10
220.169
 20
69.2326
 30
0.0
 11
220.169
 21
72.4627
 31
0.0
  0
LINE
  8
0
 62
     0
 10
220.169
 20
72.4627
 30
0.0
 11
218.444
 21
72.4627
 31
0.0
  0
LINE
  8
0
 62
     0
 10
218.444
 20
72.4627
 30
0.0
 11
218.444
 21
73.3848
 31
0.0
  0
LINE
  8
0
 62
     0
 10
218.444
 20
73.3848
 30
0.0
 11
215.145
 21
73.3848
 31
0.0
  0
LINE
  8
0
 62
     0
 10
215.145
 20
73.3848
 30
0.0
 11
215.145
 21
72.4627
 31
0.0
  0
LINE
  8
0
 62
     0
 10
215.145
 20
72.4627
 30
0.0
 11
213.42
 21
72.4627
 31
0.0
  0
LINE
  8
0
 62
     0
 10
213.42
 20
72.4627
 30
0.0
 11
213.42
 21
69.2326
 31
0.0
  0
LINE
  8
0
 62
     0
 10
213.42
 20
69.2326
 30
0.0
 11
212.594
 21
69.2326
 31
0.0
  0
LINE
  8
0
 62
     0
 10
212.594
 20
69.2326
 30
0.0
 11
212.594
 21
66.4337
 31
0.0
  0
LINE
  8
0
 62
     0
 10
212.594
 20
66.4337
 30
0.0
 11
213.42
 21
66.4337
 31
0.0
  0
LINE
  8
0
 62
     0
 10
213.42
 20
66.4337
 30
0.0
 11
213.42
 21
60.1638
 31
0.0
  0
LINE
  8
0
 62
     0
 10
213.42
 20
60.1638
 30
0.0
 11
215.145
 21
60.1638
 31
0.0
  0
LINE
  8
0
 62
     0
 10
215.145
 20
60.1638
 30
0.0
 11
215.145
 21
59.1827
 31
0.0
  0
LINE
  8
0
 62
     0
 10
215.145
 20
59.1827
 30
0.0
 11
218.444
 21
59.1827
 31
0.0
  0
LINE
  8
0
 62
     0
 10
218.444
 20
59.1827
 30
0.0
 11
218.444
 21
60.1638
 31
0.0
  0
LINE
  8
0
 62
     0
 10
218.444
 20
60.1638
 30
0.0
 11
220.169
 21
60.1638
 31
0.0
  0
LINE
  8
0
 62
     0
 10
220.169
 20
60.1638
 30
0.0
 11
220.169
 21
64.6328
 31
0.0
  0
LINE
  8
0
 62
     0
 10
220.169
 20
64.6328
 30
0.0
 11
221.695
 21
64.6328
 31
0.0
  0
LINE
  8
0
 62
     0
 10
221.695
 20
64.6328
 30
0.0
 11
221.695
 21
64.0334
 31
0.0
  0
LINE
  8
0
 62
     0
 10
221.695
 20
64.0334
 30
0.0
 11
220.894
 21
64.0334
 31
0.0
  0
LINE
  8
0
 62
     0
 10
220.894
 20
64.0334
 30
0.0
 11
220.894
 21
60.9328
 31
0.0
  0
LINE
  8
0
 62
     0
 10
220.894
 20
60.9328
 30
0.0
 11
221.695
 21
60.9328
 31
0.0
  0
LINE
  8
0
 62
     0
 10
221.695
 20
60.9328
 30
0.0
 11
221.695
 21
59.9338
 31
0.0
  0
LINE
  8
0
 62
     0
 10
221.695
 20
59.9338
 30
0.0
 11
235.694
 21
59.9338
 31
0.0
  0
LINE
  8
0
 62
     0
 10
235.694
 20
59.9338
 30
0.0
 11
235.694
 21
60.9328
 31
0.0
  0
LINE
  8
0
 62
     0
 10
235.694
 20
60.9328
 30
0.0
 11
236.495
 21
60.9328
 31
0.0
  0
LINE
  8
0
 62
     0
 10
236.495
 20
60.9328
 30
0.0
 11
236.495
 21
64.0334
 31
0.0
  0
LINE
  8
0
 62
     0
 10
236.495
 20
64.0334
 30
0.0
 11
235.694
 21
64.0334
 31
0.0
  0
LINE
  8
0
 62
     0
 10
235.694
 20
64.0334
 30
0.0
 11
235.694
 21
64.6328
 31
0.0
  0
LINE
  8
0
 62
     0
 10
235.694
 20
64.6328
 30
0.0
 11
237.22
 21
64.6328
 31
0.0
  0
LINE
  8
0
 62
     0
 10
237.22
 20
64.6328
 30
0.0
 11
237.22
 21
60.1638
 31
0.0
  0
LINE
  8
0
 62
     0
 10
237.22
 20
60.1638
 30
0.0
 11
238.945
 21
60.1638
 31
0.0
  0
LINE
  8
0
 62
     0
 10
238.945
 20
60.1638
 30
0.0
 11
238.945
 21
59.1827
 31
0.0
  0
LINE
  8
0
 62
     0
 10
238.945
 20
59.1827
 30
0.0
 11
242.244
 21
59.1827
 31
0.0
  0
LINE
  8
0
 62
     0
 10
242.244
 20
59.1827
 30
0.0
 11
242.244
 21
60.1638
 31
0.0
  0
LINE
  8
0
 62
     0
 10
242.244
 20
60.1638
 30
0.0
 11
243.969
 21
60.1638
 31
0.0
  0
LINE
  8
0
 62
     0
 10
243.969
 20
60.1638
 30
0.0
 11
243.969
 21
66.4337
 31
0.0
  0
LINE
  8
0
 62
     0
 10
243.969
 20
66.4337
 30
0.0
 11
244.795
 21
66.4337
 31
0.0
  0
LINE
  8
0
 62
     0
 10
244.795
 20
66.4337
 30
0.0
 11
244.795
 21
69.2326
 31
0.0
  0
LINE
  8
0
 62
     0
 10
244.795
 20
69.2326
 30
0.0
 11
243.969
 21
69.2326
 31
0.0
  0
LINE
  8
0
 62
     0
 10
243.969
 20
69.2326
 30
0.0
 11
243.969
 21
72.4627
 31
0.0
  0
LINE
  8
0
 62
     0
 10
243.969
 20
72.4627
 30
0.0
 11
242.244
 21
72.4627
 31
0.0
  0
LINE
  8
0
 62
     0
 10
242.244
 20
72.4627
 30
0.0
 11
242.244
 21
73.3848
 31
0.0
  0
LINE
  8
0
 62
     0
 10
242.244
 20
73.3848
 30
0.0
 11
238.945
 21
73.3848
 31
0.0
  0
LINE
  8
0
 62
     0
 10
238.945
 20
73.3848
 30
0.0
 11
238.945
 21
72.4627
 31
0.0
  0
LINE
  8
0
 62
     0
 10
238.945
 20
72.4627
 30
0.0
 11
237.22
 21
72.4627
 31
0.0
  0
LINE
  8
0
 62
     0
 10
237.22
 20
72.4627
 30
0.0
 11
237.22
 21
69.2326
 31
0.0
  0
LINE
  8
0
 62
     0
 10
237.22
 20
69.2326
 30
0.0
 11
235.694
 21
69.2326
 31
0.0
  0
LINE
  8
0
 62
     0
 10
235.694
 20
69.2326
 30
0.0
 11
235.694
 21
69.8334
 31
0.0
  0
LINE
  8
0
 62
     0
 10
235.694
 20
69.8334
 30
0.0
 11
236.495
 21
69.8334
 31
0.0
  0
LINE
  8
0
 62
     0
 10
236.495
 20
69.8334
 30
0.0
 11
236.495
 21
72.9326
 31
0.0
  0
LINE
  8
0
 62
     0
 10
236.495
 20
72.9326
 30
0.0
 11
235.694
 21
72.9326
 31
0.0
  0
LINE
  8
0
 62
     0
 10
235.694
 20
72.9326
 30
0.0
 11
235.694
 21
73.9331
 31
0.0
  0
LINE
  8
0
 62
     0
 10
235.694
 20
73.9331
 30
0.0
 11
221.695
 21
73.9331
 31
0.0
  0
LINE
  8
0
 62
     0
 10
193.12
 20
73.9331
 30
0.0
 11
193.12
 21
72.9326
 31
0.0
  0
LINE
  8
0
 62
     0
 10
193.12
 20
72.9326
 30
0.0
 11
192.319
 21
72.9326
 31
0.0
  0
LINE
  8
0
 62
     0
 10
192.319
 20
72.9326
 30
0.0
 11
192.319
 21
69.8334
 31
0.0
  0
LINE
  8
0
 62
     0
 10
192.319
 20
69.8334
 30
0.0
 11
193.12
 21
69.8334
 31
0.0
  0
LINE
  8
0
 62
     0
 10
193.12
 20
69.8334
 30
0.0
 11
193.12
 21
64.0334
 31
0.0
  0
LINE
  8
0
 62
     0
 10
193.12
 20
64.0334
 30
0.0
 11
192.319
 21
64.0334
 31
0.0
  0
LINE
  8
0
 62
     0
 10
192.319
 20
64.0334
 30
0.0
 11
192.319
 21
60.9328
 31
0.0
  0
LINE
  8
0
 62
     0
 10
192.319
 20
60.9328
 30
0.0
 11
193.12
 21
60.9328
 31
0.0
  0
LINE
  8
0
 62
     0
 10
193.12
 20
60.9328
 30
0.0
 11
193.12
 21
59.9338
 31
0.0
  0
LINE
  8
0
 62
     0
 10
193.12
 20
59.9338
 30
0.0
 11
207.119
 21
59.9338
 31
0.0
  0
LINE
  8
0
 62
     0
 10
207.119
 20
59.9338
 30
0.0
 11
207.119
 21
60.9328
 31
0.0
  0
LINE
  8
0
 62
     0
 10
207.119
 20
60.9328
 30
0.0
 11
207.92
 21
60.9328
 31
0.0
  0
LINE
  8
0
 62
     0
 10
207.92
 20
60.9328
 30
0.0
 11
207.92
 21
64.0334
 31
0.0
  0
LINE
  8
0
 62
     0
 10
207.92
 20
64.0334
 30
0.0
 11
207.119
 21
64.0334
 31
0.0
  0
LINE
  8
0
 62
     0
 10
207.119
 20
64.0334
 30
0.0
 11
207.119
 21
69.8334
 31
0.0
  0
LINE
  8
0
 62
     0
 10
207.119
 20
69.8334
 30
0.0
 11
207.92
 21
69.8334
 31
0.0
  0
LINE
  8
0
 62
     0
 10
207.92
 20
69.8334
 30
0.0
 11
207.92
 21
72.9326
 31
0.0
  0
LINE
  8
0
 62
     0
 10
207.92
 20
72.9326
 30
0.0
 11
207.119
 21
72.9326
 31
0.0
  0
LINE
  8
0
 62
     0
 10
207.119
 20
72.9326
 30
0.0
 11
207.119
 21
73.9331
 31
0.0
  0
LINE
  8
0
 62
     0
 10
207.119
 20
73.9331
 30
0.0
 11
193.12
 21
73.9331
 31
0.0
  0
LINE
  8
0
 62
     0
 10
174.07
 20
73.9331
 30
0.0
 11
174.07
 21
72.9326
 31
0.0
  0
LINE
  8
0
 62
     0
 10
174.07
 20
72.9326
 30
0.0
 11
173.269
 21
72.9326
 31
0.0
  0
LINE
  8
0
 62
     0
 10
173.269
 20
72.9326
 30
0.0
 11
173.269
 21
69.8334
 31
0.0
  0
LINE
  8
0
 62
     0
 10
173.269
 20
69.8334
 30
0.0
 11
174.07
 21
69.8334
 31
0.0
  0
LINE
  8
0
 62
     0
 10
174.07
 20
69.8334
 30
0.0
 11
174.07
 21
64.0334
 31
0.0
  0
LINE
  8
0
 62
     0
 10
174.07
 20
64.0334
 30
0.0
 11
173.269
 21
64.0334
 31
0.0
  0
LINE
  8
0
 62
     0
 10
173.269
 20
64.0334
 30
0.0
 11
173.269
 21
60.9328
 31
0.0
  0
LINE
  8
0
 62
     0
 10
173.269
 20
60.9328
 30
0.0
 11
174.07
 21
60.9328
 31
0.0
  0
LINE
  8
0
 62
     0
 10
174.07
 20
60.9328
 30
0.0
 11
174.07
 21
59.9338
 31
0.0
  0
LINE
  8
0
 62
     0
 10
174.07
 20
59.9338
 30
0.0
 11
188.069
 21
59.9338
 31
0.0
  0
LINE
  8
0
 62
     0
 10
188.069
 20
59.9338
 30
0.0
 11
188.069
 21
60.9328
 31
0.0
  0
LINE
  8
0
 62
     0
 10
188.069
 20
60.9328
 30
0.0
 11
188.87
 21
60.9328
 31
0.0
  0
LINE
  8
0
 62
     0
 10
188.87
 20
60.9328
 30
0.0
 11
188.87
 21
64.0334
 31
0.0
  0
LINE
  8
0
 62
     0
 10
188.87
 20
64.0334
 30
0.0
 11
188.069
 21
64.0334
 31
0.0
  0
LINE
  8
0
 62
     0
 10
188.069
 20
64.0334
 30
0.0
 11
188.069
 21
69.8334
 31
0.0
  0
LINE
  8
0
 62
     0
 10
188.069
 20
69.8334
 30
0.0
 11
188.87
 21
69.8334
 31
0.0
  0
LINE
  8
0
 62
     0
 10
188.87
 20
69.8334
 30
0.0
 11
188.87
 21
72.9326
 31
0.0
  0
LINE
  8
0
 62
     0
 10
188.87
 20
72.9326
 30
0.0
 11
188.069
 21
72.9326
 31
0.0
  0
LINE
  8
0
 62
     0
 10
188.069
 20
72.9326
 30
0.0
 11
188.069
 21
73.9331
 31
0.0
  0
LINE
  8
0
 62
     0
 10
188.069
 20
73.9331
 30
0.0
 11
174.07
 21
73.9331
 31
0.0
  0
LINE
  8
0
 62
     0
 10
155.02
 20
73.9331
 30
0.0
 11
155.02
 21
72.9326
 31
0.0
  0
LINE
  8
0
 62
     0
 10
155.02
 20
72.9326
 30
0.0
 11
154.219
 21
72.9326
 31
0.0
  0
LINE
  8
0
 62
     0
 10
154.219
 20
72.9326
 30
0.0
 11
154.219
 21
69.8334
 31
0.0
  0
LINE
  8
0
 62
     0
 10
154.219
 20
69.8334
 30
0.0
 11
155.02
 21
69.8334
 31
0.0
  0
LINE
  8
0
 62
     0
 10
155.02
 20
69.8334
 30
0.0
 11
155.02
 21
64.0334
 31
0.0
  0
LINE
  8
0
 62
     0
 10
155.02
 20
64.0334
 30
0.0
 11
154.219
 21
64.0334
 31
0.0
  0
LINE
  8
0
 62
     0
 10
154.219
 20
64.0334
 30
0.0
 11
154.219
 21
60.9328
 31
0.0
  0
LINE
  8
0
 62
     0
 10
154.219
 20
60.9328
 30
0.0
 11
155.02
 21
60.9328
 31
0.0
  0
LINE
  8
0
 62
     0
 10
155.02
 20
60.9328
 30
0.0
 11
155.02
 21
59.9338
 31
0.0
  0
LINE
  8
0
 62
     0
 10
155.02
 20
59.9338
 30
0.0
 11
169.019
 21
59.9338
 31
0.0
  0
LINE
  8
0
 62
     0
 10
169.019
 20
59.9338
 30
0.0
 11
169.019
 21
60.9328
 31
0.0
  0
LINE
  8
0
 62
     0
 10
169.019
 20
60.9328
 30
0.0
 11
169.82
 21
60.9328
 31
0.0
  0
LINE
  8
0
 62
     0
 10
169.82
 20
60.9328
 30
0.0
 11
169.82
 21
64.0334
 31
0.0
  0
LINE
  8
0
 62
     0
 10
169.82
 20
64.0334
 30
0.0
 11
169.019
 21
64.0334
 31
0.0
  0
LINE
  8
0
 62
     0
 10
169.019
 20
64.0334
 30
0.0
 11
169.019
 21
69.8334
 31
0.0
  0
LINE
  8
0
 62
     0
 10
169.019
 20
69.8334
 30
0.0
 11
169.82
 21
69.8334
 31
0.0
  0
LINE
  8
0
 62
     0
 10
169.82
 20
69.8334
 30
0.0
 11
169.82
 21
72.9326
 31
0.0
  0
LINE
  8
0
 62
     0
 10
169.82
 20
72.9326
 30
0.0
 11
169.019
 21
72.9326
 31
0.0
  0
LINE
  8
0
 62
     0
 10
169.019
 20
72.9326
 30
0.0
 11
169.019
 21
73.9331
 31
0.0
  0
LINE
  8
0
 62
     0
 10
169.019
 20
73.9331
 30
0.0
 11
155.02
 21
73.9331
 31
0.0
  0
LINE
  8
0
 62
     0
 10
135.97
 20
73.9331
 30
0.0
 11
135.97
 21
72.9326
 31
0.0
  0
LINE
  8
0
 62
     0
 10
135.97
 20
72.9326
 30
0.0
 11
135.169
 21
72.9326
 31
0.0
  0
LINE
  8
0
 62
     0
 10
135.169
 20
72.9326
 30
0.0
 11
135.169
 21
69.8334
 31
0.0
  0
LINE
  8
0
 62
     0
 10
135.169
 20
69.8334
 30
0.0
 11
135.97
 21
69.8334
 31
0.0
  0
LINE
  8
0
 62
     0
 10
135.97
 20
69.8334
 30
0.0
 11
135.97
 21
64.0334
 31
0.0
  0
LINE
  8
0
 62
     0
 10
135.97
 20
64.0334
 30
0.0
 11
135.169
 21
64.0334
 31
0.0
  0
LINE
  8
0
 62
     0
 10
135.169
 20
64.0334
 30
0.0
 11
135.169
 21
60.9328
 31
0.0
  0
LINE
  8
0
 62
     0
 10
135.169
 20
60.9328
 30
0.0
 11
135.97
 21
60.9328
 31
0.0
  0
LINE
  8
0
 62
     0
 10
135.97
 20
60.9328
 30
0.0
 11
135.97
 21
59.9338
 31
0.0
  0
LINE
  8
0
 62
     0
 10
135.97
 20
59.9338
 30
0.0
 11
149.969
 21
59.9338
 31
0.0
  0
LINE
  8
0
 62
     0
 10
149.969
 20
59.9338
 30
0.0
 11
149.969
 21
60.9328
 31
0.0
  0
LINE
  8
0
 62
     0
 10
149.969
 20
60.9328
 30
0.0
 11
150.77
 21
60.9328
 31
0.0
  0
LINE
  8
0
 62
     0
 10
150.77
 20
60.9328
 30
0.0
 11
150.77
 21
64.0334
 31
0.0
  0
LINE
  8
0
 62
     0
 10
150.77
 20
64.0334
 30
0.0
 11
149.969
 21
64.0334
 31
0.0
  0
LINE
  8
0
 62
     0
 10
149.969
 20
64.0334
 30
0.0
 11
149.969
 21
69.8334
 31
0.0
  0
LINE
  8
0
 62
     0
 10
149.969
 20
69.8334
 30
0.0
 11
150.77
 21
69.8334
 31
0.0
  0
LINE
  8
0
 62
     0
 10
150.77
 20
69.8334
 30
0.0
 11
150.77
 21
72.9326
 31
0.0
  0
LINE
  8
0
 62
     0
 10
150.77
 20
72.9326
 30
0.0
 11
149.969
 21
72.9326
 31
0.0
  0
LINE
  8
0
 62
     0
 10
149.969
 20
72.9326
 30
0.0
 11
149.969
 21
73.9331
 31
0.0
  0
LINE
  8
0
 62
     0
 10
149.969
 20
73.9331
 30
0.0
 11
135.97
 21
73.9331
 31
0.0
  0
LINE
  8
0
 62
     0
 10
116.918
 20
73.9331
 30
0.0
 11
116.918
 21
72.9326
 31
0.0
  0
LINE
  8
0
 62
     0
 10
116.918
 20
72.9326
 30
0.0
 11
116.119
 21
72.9326
 31
0.0
  0
LINE
  8
0
 62
     0
 10
116.119
 20
72.9326
 30
0.0
 11
116.119
 21
69.8334
 31
0.0
  0
LINE
  8
0
 62
     0
 10
116.119
 20
69.8334
 30
0.0
 11
116.918
 21
69.8334
 31
0.0
  0
LINE
  8
0
 62
     0
 10
116.918
 20
69.8334
 30
0.0
 11
116.918
 21
64.0334
 31
0.0
  0
LINE
  8
0
 62
     0
 10
116.918
 20
64.0334
 30
0.0
 11
116.119
 21
64.0334
 31
0.0
  0
LINE
  8
0
 62
     0
 10
116.119
 20
64.0334
 30
0.0
 11
116.119
 21
60.9328
 31
0.0
  0
LINE
  8
0
 62
     0
 10
116.119
 20
60.9328
 30
0.0
 11
116.918
 21
60.9328
 31
0.0
  0
LINE
  8
0
 62
     0
 10
116.918
 20
60.9328
 30
0.0
 11
116.918
 21
59.9338
 31
0.0
  0
LINE
  8
0
 62
     0
 10
116.918
 20
59.9338
 30
0.0
 11
130.919
 21
59.9338
 31
0.0
  0
LINE
  8
0
 62
     0
 10
130.919
 20
59.9338
 30
0.0
 11
130.919
 21
60.9328
 31
0.0
  0
LINE
  8
0
 62
     0
 10
130.919
 20
60.9328
 30
0.0
 11
131.72
 21
60.9328
 31
0.0
  0
LINE
  8
0
 62
     0
 10
131.72
 20
60.9328
 30
0.0
 11
131.72
 21
64.0334
 31
0.0
  0
LINE
  8
0
 62
     0
 10
131.72
 20
64.0334
 30
0.0
 11
130.919
 21
64.0334
 31
0.0
  0
LINE
  8
0
 62
     0
 10
130.919
 20
64.0334
 30
0.0
 11
130.919
 21
69.8334
 31
0.0
  0
LINE
  8
0
 62
     0
 10
130.919
 20
69.8334
 30
0.0
 11
131.72
 21
69.8334
 31
0.0
  0
LINE
  8
0
 62
     0
 10
131.72
 20
69.8334
 30
0.0
 11
131.72
 21
72.9326
 31
0.0
  0
LINE
  8
0
 62
     0
 10
131.72
 20
72.9326
 30
0.0
 11
130.919
 21
72.9326
 31
0.0
  0
LINE
  8
0
 62
     0
 10
130.919
 20
72.9326
 30
0.0
 11
130.919
 21
73.9331
 31
0.0
  0
LINE
  8
0
 62
     0
 10
130.919
 20
73.9331
 30
0.0
 11
116.918
 21
73.9331
 31
0.0
  0
LINE
  8
0
 62
     0
 10
97.8683
 20
73.9331
 30
0.0
 11
97.8683
 21
72.9326
 31
0.0
  0
LINE
  8
0
 62
     0
 10
97.8683
 20
72.9326
 30
0.0
 11
97.0689
 21
72.9326
 31
0.0
  0
LINE
  8
0
 62
     0
 10
97.0689
 20
72.9326
 30
0.0
 11
97.0689
 21
69.8334
 31
0.0
  0
LINE
  8
0
 62
     0
 10
97.0689
 20
69.8334
 30
0.0
 11
97.8683
 21
69.8334
 31
0.0
  0
LINE
  8
0
 62
     0
 10
97.8683
 20
69.8334
 30
0.0
 11
97.8683
 21
64.0334
 31
0.0
  0
LINE
  8
0
 62
     0
 10
97.8683
 20
64.0334
 30
0.0
 11
97.0689
 21
64.0334
 31
0.0
  0
LINE
  8
0
 62
     0
 10
97.0689
 20
64.0334
 30
0.0
 11
97.0689
 21
60.9328
 31
0.0
  0
LINE
  8
0
 62
     0
 10
97.0689
 20
60.9328
 30
0.0
 11
97.8683
 21
60.9328
 31
0.0
  0
LINE
  8
0
 62
     0
 10
97.8683
 20
60.9328
 30
0.0
 11
97.8683
 21
59.9338
 31
0.0
  0
LINE
  8
0
 62
     0
 10
97.8683
 20
59.9338
 30
0.0
 11
111.869
 21
59.9338
 31
0.0
  0
LINE
  8
0
 62
     0
 10
111.869
 20
59.9338
 30
0.0
 11
111.869
 21
60.9328
 31
0.0
  0
LINE
  8
0
 62
     0
 10
111.869
 20
60.9328
 30
0.0
 11
112.668
 21
60.9328
 31
0.0
  0
LINE
  8
0
 62
     0
 10
112.668
 20
60.9328
 30
0.0
 11
112.668
 21
64.0334
 31
0.0
  0
LINE
  8
0
 62
     0
 10
112.668
 20
64.0334
 30
0.0
 11
111.869
 21
64.0334
 31
0.0
  0
LINE
  8
0
 62
     0
 10
111.869
 20
64.0334
 30
0.0
 11
111.869
 21
69.8334
 31
0.0
  0
LINE
  8
0
 62
     0
 10
111.869
 20
69.8334
 30
0.0
 11
112.668
 21
69.8334
 31
0.0
  0
LINE
  8
0
 62
     0
 10
112.668
 20
69.8334
 30
0.0
 11
112.668
 21
72.9326
 31
0.0
  0
LINE
  8
0
 62
     0
 10
112.668
 20
72.9326
 30
0.0
 11
111.869
 21
72.9326
 31
0.0
  0
LINE
  8
0
 62
     0
 10
111.869
 20
72.9326
 30
0.0
 11
111.869
 21
73.9331
 31
0.0
  0
LINE
  8
0
 62
     0
 10
111.869
 20
73.9331
 30
0.0
 11
97.8683
 21
73.9331
 31
0.0
  0
LINE
  8
0
 62
     0
 10
78.8197
 20
73.9331
 30
0.0
 11
78.8197
 21
72.9326
 31
0.0
  0
LINE
  8
0
 62
     0
 10
78.8197
 20
72.9326
 30
0.0
 11
78.0189
 21
72.9326
 31
0.0
  0
LINE
  8
0
 62
     0
 10
78.0189
 20
72.9326
 30
0.0
 11
78.0189
 21
69.8334
 31
0.0
  0
LINE
  8
0
 62
     0
 10
78.0189
 20
69.8334
 30
0.0
 11
78.8197
 21
69.8334
 31
0.0
  0
LINE
  8
0
 62
     0
 10
78.8197
 20
69.8334
 30
0.0
 11
78.8197
 21
64.0334
 31
0.0
  0
LINE
  8
0
 62
     0
 10
78.8197
 20
64.0334
 30
0.0
 11
78.0189
 21
64.0334
 31
0.0
  0
LINE
  8
0
 62
     0
 10
78.0189
 20
64.0334
 30
0.0
 11
78.0189
 21
60.9328
 31
0.0
  0
LINE
  8
0
 62
     0
 10
78.0189
 20
60.9328
 30
0.0
 11
78.8197
 21
60.9328
 31
0.0
  0
LINE
  8
0
 62
     0
 10
78.8197
 20
60.9328
 30
0.0
 11
78.8197
 21
59.9338
 31
0.0
  0
LINE
  8
0
 62
     0
 10
78.8197
 20
59.9338
 30
0.0
 11
92.819
 21
59.9338
 31
0.0
  0
LINE
  8
0
 62
     0
 10
92.819
 20
59.9338
 30
0.0
 11
92.819
 21
60.9328
 31
0.0
  0
LINE
  8
0
 62
     0
 10
92.819
 20
60.9328
 30
0.0
 11
93.6184
 21
60.9328
 31
0.0
  0
LINE
  8
0
 62
     0
 10
93.6184
 20
60.9328
 30
0.0
 11
93.6184
 21
64.0334
 31
0.0
  0
LINE
  8
0
 62
     0
 10
93.6184
 20
64.0334
 30
0.0
 11
92.819
 21
64.0334
 31
0.0
  0
LINE
  8
0
 62
     0
 10
92.819
 20
64.0334
 30
0.0
 11
92.819
 21
69.8334
 31
0.0
  0
LINE
  8
0
 62
     0
 10
92.819
 20
69.8334
 30
0.0
 11
93.6184
 21
69.8334
 31
0.0
  0
LINE
  8
0
 62
     0
 10
93.6184
 20
69.8334
 30
0.0
 11
93.6184
 21
72.9326
 31
0.0
  0
LINE
  8
0
 62
     0
 10
93.6184
 20
72.9326
 30
0.0
 11
92.819
 21
72.9326
 31
0.0
  0
LINE
  8
0
 62
     0
 10
92.819
 20
72.9326
 30
0.0
 11
92.819
 21
73.9331
 31
0.0
  0
LINE
  8
0
 62
     0
 10
92.819
 20
73.9331
 30
0.0
 11
78.8197
 21
73.9331
 31
0.0
  0
LINE
  8
0
 62
     0
 10
59.7697
 20
73.9331
 30
0.0
 11
59.7697
 21
72.9326
 31
0.0
  0
LINE
  8
0
 62
     0
 10
59.7697
 20
72.9326
 30
0.0
 11
58.9689
 21
72.9326
 31
0.0
  0
LINE
  8
0
 62
     0
 10
58.9689
 20
72.9326
 30
0.0
 11
58.9689
 21
69.8334
 31
0.0
  0
LINE
  8
0
 62
     0
 10
58.9689
 20
69.8334
 30
0.0
 11
59.7697
 21
69.8334
 31
0.0
  0
LINE
  8
0
 62
     0
 10
59.7697
 20
69.8334
 30
0.0
 11
59.7697
 21
64.0334
 31
0.0
  0
LINE
  8
0
 62
     0
 10
59.7697
 20
64.0334
 30
0.0
 11
58.9689
 21
64.0334
 31
0.0
  0
LINE
  8
0
 62
     0
 10
58.9689
 20
64.0334
 30
0.0
 11
58.9689
 21
60.9328
 31
0.0
  0
LINE
  8
0
 62
     0
 10
58.9689
 20
60.9328
 30
0.0
 11
59.7697
 21
60.9328
 31
0.0
  0
LINE
  8
0
 62
     0
 10
59.7697
 20
60.9328
 30
0.0
 11
59.7697
 21
59.9338
 31
0.0
  0
LINE
  8
0
 62
     0
 10
59.7697
 20
59.9338
 30
0.0
 11
73.769
 21
59.9338
 31
0.0
  0
LINE
  8
0
 62
     0
 10
73.769
 20
59.9338
 30
0.0
 11
73.769
 21
60.9328
 31
0.0
  0
LINE
  8
0
 62
     0
 10
73.769
 20
60.9328
 30
0.0
 11
74.5698
 21
60.9328
 31
0.0
  0
LINE
  8
0
 62
     0
 10
74.5698
 20
60.9328
 30
0.0
 11
74.5698
 21
64.0334
 31
0.0
  0
LINE
  8
0
 62
     0
 10
74.5698
 20
64.0334
 30
0.0
 11
73.769
 21
64.0334
 31
0.0
  0
LINE
  8
0
 62
     0
 10
73.769
 20
64.0334
 30
0.0
 11
73.769
 21
69.8334
 31
0.0
  0
LINE
  8
0
 62
     0
 10
73.769
 20
69.8334
 30
0.0
 11
74.5698
 21
69.8334
 31
0.0
  0
LINE
  8
0
 62
     0
 10
74.5698
 20
69.8334
 30
0.0
 11
74.5698
 21
72.9326
 31
0.0
  0
LINE
  8
0
 62
     0
 10
74.5698
 20
72.9326
 30
0.0
 11
73.769
 21
72.9326
 31
0.0
  0
LINE
  8
0
 62
     0
 10
73.769
 20
72.9326
 30
0.0
 11
73.769
 21
73.9331
 31
0.0
  0
LINE
  8
0
 62
     0
 10
73.769
 20
73.9331
 30
0.0
 11
59.7697
 21
73.9331
 31
0.0
  0
LINE
  8
0
 62
     0
 10
40.7197
 20
73.9331
 30
0.0
 11
40.7197
 21
72.9326
 31
0.0
  0
LINE
  8
0
 62
     0
 10
40.7197
 20
72.9326
 30
0.0
 11
39.9189
 21
72.9326
 31
0.0
  0
LINE
  8
0
 62
     0
 10
39.9189
 20
72.9326
 30
0.0
 11
39.9189
 21
69.8334
 31
0.0
  0
LINE
  8
0
 62
     0
 10
39.9189
 20
69.8334
 30
0.0
 11
40.7197
 21
69.8334
 31
0.0
  0
LINE
  8
0
 62
     0
 10
40.7197
 20
69.8334
 30
0.0
 11
40.7197
 21
64.0334
 31
0.0
  0
LINE
  8
0
 62
     0
 10
40.7197
 20
64.0334
 30
0.0
 11
39.9189
 21
64.0334
 31
0.0
  0
LINE
  8
0
 62
     0
 10
39.9189
 20
64.0334
 30
0.0
 11
39.9189
 21
60.9328
 31
0.0
  0
LINE
  8
0
 62
     0
 10
39.9189
 20
60.9328
 30
0.0
 11
40.7197
 21
60.9328
 31
0.0
  0
LINE
  8
0
 62
     0
 10
40.7197
 20
60.9328
 30
0.0
 11
40.7197
 21
59.9338
 31
0.0
  0
LINE
  8
0
 62
     0
 10
40.7197
 20
59.9338
 30
0.0
 11
54.719
 21
59.9338
 31
0.0
  0
LINE
  8
0
 62
     0
 10
54.719
 20
59.9338
 30
0.0
 11
54.719
 21
60.9328
 31
0.0
  0
LINE
  8
0
 62
     0
 10
54.719
 20
60.9328
 30
0.0
 11
55.5198
 21
60.9328
 31
0.0
  0
LINE
  8
0
 62
     0
 10
55.5198
 20
60.9328
 30
0.0
 11
55.5198
 21
64.0334
 31
0.0
  0
LINE
  8
0
 62
     0
 10
55.5198
 20
64.0334
 30
0.0
 11
54.719
 21
64.0334
 31
0.0
  0
LINE
  8
0
 62
     0
 10
54.719
 20
64.0334
 30
0.0
 11
54.719
 21
69.8334
 31
0.0
  0
LINE
  8
0
 62
     0
 10
54.719
 20
69.8334
 30
0.0
 11
55.5198
 21
69.8334
 31
0.0
  0
LINE
  8
0
 62
     0
 10
55.5198
 20
69.8334
 30
0.0
 11
55.5198
 21
72.9326
 31
0.0
  0
LINE
  8
0
 62
     0
 10
55.5198
 20
72.9326
 30
0.0
 11
54.719
 21
72.9326
 31
0.0
  0
LINE
  8
0
 62
     0
 10
54.719
 20
72.9326
 30
0.0
 11
54.719
 21
73.9331
 31
0.0
  0
LINE
  8
0
 62
     0
 10
54.719
 20
73.9331
 30
0.0
 11
40.7197
 21
73.9331
 31
0.0
  0
LINE
  8
0
 62
     0
 10
21.6697
 20
73.9331
 30
0.0
 11
21.6697
 21
72.9326
 31
0.0
  0
LINE
  8
0
 62
     0
 10
21.6697
 20
72.9326
 30
0.0
 11
20.869
 21
72.9326
 31
0.0
  0
LINE
  8
0
 62
     0
 10
20.869
 20
72.9326
 30
0.0
 11
20.869
 21
69.8334
 31
0.0
  0
LINE
  8
0
 62
     0
 10
20.869
 20
69.8334
 30
0.0
 11
21.6697
 21
69.8334
 31
0.0
  0
LINE
  8
0
 62
     0
 10
21.6697
 20
69.8334
 30
0.0
 11
21.6697
 21
64.0334
 31
0.0
  0
LINE
  8
0
 62
     0
 10
21.6697
 20
64.0334
 30
0.0
 11
20.869
 21
64.0334
 31
0.0
  0
LINE
  8
0
 62
     0
 10
20.869
 20
64.0334
 30
0.0
 11
20.869
 21
60.9328
 31
0.0
  0
LINE
  8
0
 62
     0
 10
20.869
 20
60.9328
 30
0.0
 11
21.6697
 21
60.9328
 31
0.0
  0
LINE
  8
0
 62
     0
 10
21.6697
 20
60.9328
 30
0.0
 11
21.6697
 21
59.9338
 31
0.0
  0
LINE
  8
0
 62
     0
 10
21.6697
 20
59.9338
 30
0.0
 11
35.669
 21
59.9338
 31
0.0
  0
LINE
  8
0
 62
     0
 10
35.669
 20
59.9338
 30
0.0
 11
35.669
 21
60.9328
 31
0.0
  0
LINE
  8
0
 62
     0
 10
35.669
 20
60.9328
 30
0.0
 11
36.4698
 21
60.9328
 31
0.0
  0
LINE
  8
0
 62
     0
 10
36.4698
 20
60.9328
 30
0.0
 11
36.4698
 21
64.0334
 31
0.0
  0
LINE
  8
0
 62
     0
 10
36.4698
 20
64.0334
 30
0.0
 11
35.669
 21
64.0334
 31
0.0
  0
LINE
  8
0
 62
     0
 10
35.669
 20
64.0334
 30
0.0
 11
35.669
 21
69.8334
 31
0.0
  0
LINE
  8
0
 62
     0
 10
35.669
 20
69.8334
 30
0.0
 11
36.4698
 21
69.8334
 31
0.0
  0
LINE
  8
0
 62
     0
 10
36.4698
 20
69.8334
 30
0.0
 11
36.4698
 21
72.9326
 31
0.0
  0
LINE
  8
0
 62
     0
 10
36.4698
 20
72.9326
 30
0.0
 11
35.669
 21
72.9326
 31
0.0
  0
LINE
  8
0
 62
     0
 10
35.669
 20
72.9326
 30
0.0
 11
35.669
 21
73.9331
 31
0.0
  0
LINE
  8
0
 62
     0
 10
35.669
 20
73.9331
 30
0.0
 11
21.6697
 21
73.9331
 31
0.0
  0
LINE
  8
0
 62
     0
 10
2.61965
 20
73.9331
 30
0.0
 11
2.61965
 21
72.9326
 31
0.0
  0
LINE
  8
0
 62
     0
 10
2.61965
 20
72.9326
 30
0.0
 11
1.81901
 21
72.9326
 31
0.0
  0
LINE
  8
0
 62
     0
 10
1.81901
 20
72.9326
 30
0.0
 11
1.81901
 21
69.8334
 31
0.0
  0
LINE
  8
0
 62
     0
 10
1.81901
 20
69.8334
 30
0.0
 11
2.61965
 21
69.8334
 31
0.0
  0
LINE
  8
0
 62
     0
 10
2.61965
 20
69.8334
 30
0.0
 11
2.61965
 21
64.0334
 31
0.0
  0
LINE
  8
0
 62
     0
 10
2.61965
 20
64.0334
 30
0.0
 11
1.81901
 21
64.0334
 31
0.0
  0
LINE
  8
0
 62
     0
 10
1.81901
 20
64.0334
 30
0.0
 11
1.81901
 21
60.9328
 31
0.0
  0
LINE
  8
0
 62
     0
 10
1.81901
 20
60.9328
 30
0.0
 11
2.61965
 21
60.9328
 31
0.0
  0
LINE
  8
0
 62
     0
 10
2.61965
 20
60.9328
 30
0.0
 11
2.61965
 21
59.9338
 31
0.0
  0
LINE
  8
0
 62
     0
 10
2.61965
 20
59.9338
 30
0.0
 11
16.6192
 21
59.9338
 31
0.0
  0
LINE
  8
0
 62
     0
 10
16.6192
 20
59.9338
 30
0.0
 11
16.6192
 21
60.9328
 31
0.0
  0
LINE
  8
0
 62
     0
 10
16.6192
 20
60.9328
 30
0.0
 11
17.4198
 21
60.9328
 31
0.0
  0
LINE
  8
0
 62
     0
 10
17.4198
 20
60.9328
 30
0.0
 11
17.4198
 21
64.0334
 31
0.0
  0
LINE
  8
0
 62
     0
 10
17.4198
 20
64.0334
 30
0.0
 11
16.6192
 21
64.0334
 31
0.0
  0
LINE
  8
0
 62
     0
 10
16.6192
 20
64.0334
 30
0.0
 11
16.6192
 21
69.8334
 31
0.0
  0
LINE
  8
0
 62
     0
 10
16.6192
 20
69.8334
 30
0.0
 11
17.4198
 21
69.8334
 31
0.0
  0
LINE
  8
0
 62
     0
 10
17.4198
 20
69.8334
 30
0.0
 11
17.4198
 21
72.9326
 31
0.0
  0
LINE
  8
0
 62
     0
 10
17.4198
 20
72.9326
 30
0.0
 11
16.6192
 21
72.9326
 31
0.0
  0
LINE
  8
0
 62
     0
 10
16.6192
 20
72.9326
 30
0.0
 11
16.6192
 21
73.9331
 31
0.0
  0
LINE
  8
0
 62
     0
 10
16.6192
 20
73.9331
 30
0.0
 11
2.61965
 21
73.9331
 31
0.0
  0
ENDSEC
  0
EOF
